<svg xmlns="http://www.w3.org/2000/svg" width="291" height="291" viewBox="0 0 291 291">
  <g id="Group_26" data-name="Group 26" transform="translate(-139 -1393)">
    <rect id="Rectangle_118" data-name="Rectangle 118" width="291" height="291" transform="translate(139 1393)" fill="#fcf0e3"/>
    <g id="Group_14" data-name="Group 14" transform="translate(259.153 1452.145)">
      <path id="Path_725" data-name="Path 725" d="M119.8,625.4s29.448,9.406.135,21.4" transform="translate(-102.785 -623.764)" fill="none" stroke="#231f20" stroke-miterlimit="10" stroke-width="4"/>
      <path id="Path_726" data-name="Path 726" d="M129.581,631.073s-29.445,9.406-.135,21.4" transform="translate(-111.982 -608.169)" fill="none" stroke="#231f20" stroke-miterlimit="10" stroke-width="4"/>
      <path id="Path_727" data-name="Path 727" d="M119.855,636.745s29.445,9.41.135,21.407" transform="translate(-102.634 -592.577)" fill="none" stroke="#231f20" stroke-miterlimit="10" stroke-width="4"/>
      <path id="Path_728" data-name="Path 728" d="M129.638,642.418s-29.448,9.406-.139,21.4" transform="translate(-111.833 -576.982)" fill="none" stroke="#231f20" stroke-miterlimit="10" stroke-width="4"/>
      <path id="Path_729" data-name="Path 729" d="M119.691,648.036s29.445,9.406.135,21.4" transform="translate(-103.085 -561.538)" fill="none" stroke="#231f20" stroke-miterlimit="10" stroke-width="4"/>
      <path id="Path_730" data-name="Path 730" d="M129.472,653.709s-29.445,9.406-.135,21.4" transform="translate(-112.281 -545.943)" fill="none" stroke="#231f20" stroke-miterlimit="10" stroke-width="4"/>
      <path id="Path_731" data-name="Path 731" d="M119.745,659.382s29.448,9.406.139,21.4" transform="translate(-102.936 -530.348)" fill="none" stroke="#231f20" stroke-miterlimit="10" stroke-width="4"/>
      <path id="Path_732" data-name="Path 732" d="M129.529,665.055s-29.448,9.406-.139,21.4" transform="translate(-112.132 -514.753)" fill="none" stroke="#231f20" stroke-miterlimit="10" stroke-width="4"/>
      <line id="Line_3" data-name="Line 3" y2="172.59" transform="translate(0 0)" fill="none" stroke="#231f20" stroke-miterlimit="10" stroke-width="4"/>
      <path id="Path_757" data-name="Path 757" d="M0,0V172.726" transform="translate(34.649 0.347)" fill="none" stroke="#231f20" stroke-width="4"/>
    </g>
  </g>
</svg>
