<svg xmlns="http://www.w3.org/2000/svg" width="291" height="291" viewBox="0 0 291 291">
  <g id="Group_28" data-name="Group 28" transform="translate(-822 -1393)">
    <rect id="Rectangle_120" data-name="Rectangle 120" width="291" height="291" transform="translate(822 1393)" fill="#fcf0e3"/>
    <g id="Group_23" data-name="Group 23" transform="translate(792.418 786.818)">
      <path id="Path_762" data-name="Path 762" d="M166.716,665.727s16.785,9.4.079,21.379" transform="translate(8.603 1.496)" fill="none" stroke="#231f20" stroke-miterlimit="10" stroke-width="4"/>
      <path id="Path_763" data-name="Path 763" d="M172.291,671.4s-16.785,9.4-.079,21.379" transform="translate(3.365 17.068)" fill="none" stroke="#231f20" stroke-miterlimit="10" stroke-width="4"/>
      <path id="Path_764" data-name="Path 764" d="M166.748,677.073s16.781,9.4.075,21.379" transform="translate(8.691 32.64)" fill="none" stroke="#231f20" stroke-miterlimit="10" stroke-width="4"/>
      <path id="Path_765" data-name="Path 765" d="M172.322,682.745s-16.785,9.4-.079,21.383" transform="translate(3.45 48.209)" fill="none" stroke="#231f20" stroke-miterlimit="10" stroke-width="4"/>
      <path id="Path_766" data-name="Path 766" d="M166.654,688.364s16.785,9.4.079,21.379" transform="translate(8.433 63.632)" fill="none" stroke="#231f20" stroke-miterlimit="10" stroke-width="4"/>
      <path id="Path_767" data-name="Path 767" d="M172.226,694.036s-16.781,9.4-.075,21.38" transform="translate(3.194 79.201)" fill="none" stroke="#231f20" stroke-miterlimit="10" stroke-width="4"/>
      <path id="Path_768" data-name="Path 768" d="M166.685,699.709s16.785,9.4.079,21.38" transform="translate(8.518 94.773)" fill="none" stroke="#231f20" stroke-miterlimit="10" stroke-width="4"/>
      <path id="Path_769" data-name="Path 769" d="M172.257,705.382s-16.781,9.4-.075,21.379" transform="translate(3.279 110.345)" fill="none" stroke="#231f20" stroke-miterlimit="10" stroke-width="4"/>
      <line id="Line_11" data-name="Line 11" y2="172.401" transform="translate(161.582 665.182)" fill="none" stroke="#231f20" stroke-miterlimit="10" stroke-width="4"/>
      <line id="Line_12" data-name="Line 12" y2="172.537" transform="translate(188.277 664.863)" fill="none" stroke="#231f20" stroke-miterlimit="10" stroke-width="4"/>
    </g>
  </g>
</svg>
