<svg xmlns="http://www.w3.org/2000/svg" width="291" height="291" viewBox="0 0 291 291">
  <g id="Group_29" data-name="Group 29" transform="translate(-1161 -1393)">
    <rect id="Rectangle_146" data-name="Rectangle 146" width="291" height="291" transform="translate(1161 1393)" fill="#fcf0e3"/>
    <g id="Group_19" data-name="Group 19" transform="translate(1265.969 1451.929)">
      <g id="Group_18" data-name="Group 18" transform="translate(0 0)">
        <g id="Group_16" data-name="Group 16" transform="translate(0 0.163)">
          <path id="Path_741" data-name="Path 741" d="M144.964,628.527s29.434,9.4.135,21.4" transform="translate(-127.136 -626.293)" fill="none" stroke="#231f20" stroke-miterlimit="10" stroke-width="4"/>
          <path id="Path_742" data-name="Path 742" d="M154.742,634.2s-29.437,9.4-.135,21.4" transform="translate(-136.329 -610.706)" fill="none" stroke="#231f20" stroke-miterlimit="10" stroke-width="4"/>
          <path id="Path_743" data-name="Path 743" d="M145.018,639.874s29.437,9.4.139,21.4" transform="translate(-126.987 -595.119)" fill="none" stroke="#231f20" stroke-miterlimit="10" stroke-width="4"/>
          <path id="Path_744" data-name="Path 744" d="M154.794,645.545s-29.434,9.407-.135,21.4" transform="translate(-136.179 -579.534)" fill="none" stroke="#231f20" stroke-miterlimit="10" stroke-width="4"/>
          <path id="Path_745" data-name="Path 745" d="M144.855,651.164s29.434,9.4.135,21.4" transform="translate(-127.435 -564.095)" fill="none" stroke="#231f20" stroke-miterlimit="10" stroke-width="4"/>
          <path id="Path_746" data-name="Path 746" d="M154.634,656.836s-29.437,9.4-.139,21.4" transform="translate(-136.629 -548.511)" fill="none" stroke="#231f20" stroke-miterlimit="10" stroke-width="4"/>
          <path id="Path_747" data-name="Path 747" d="M144.909,662.509s29.438,9.4.135,21.4" transform="translate(-127.287 -532.924)" fill="none" stroke="#231f20" stroke-miterlimit="10" stroke-width="4"/>
          <path id="Path_748" data-name="Path 748" d="M154.685,668.183s-29.434,9.4-.135,21.395" transform="translate(-136.479 -517.337)" fill="none" stroke="#231f20" stroke-miterlimit="10" stroke-width="4"/>
          <line id="Line_7" data-name="Line 7" y2="172.526" transform="translate(0 0)" fill="none" stroke="#231f20" stroke-miterlimit="10" stroke-width="4"/>
          <path id="Path_759" data-name="Path 759" d="M0,287.818" transform="translate(31.591 -114.691)" fill="none" stroke="#231f20" stroke-width="4"/>
        </g>
        <g id="Group_17" data-name="Group 17" transform="translate(35.654 0)">
          <path id="Path_749" data-name="Path 749" d="M154.39,628.165s47.79,9.4.221,21.395" transform="translate(-129.092 -626.528)" fill="none" stroke="#231f20" stroke-miterlimit="10" stroke-width="4"/>
          <path id="Path_750" data-name="Path 750" d="M170.264,633.836s-47.79,9.4-.221,21.4" transform="translate(-144.014 -610.943)" fill="none" stroke="#231f20" stroke-miterlimit="10" stroke-width="4"/>
          <path id="Path_751" data-name="Path 751" d="M154.479,639.509s47.786,9.4.221,21.4" transform="translate(-128.847 -595.356)" fill="none" stroke="#231f20" stroke-miterlimit="10" stroke-width="4"/>
          <path id="Path_752" data-name="Path 752" d="M170.351,645.182s-47.786,9.4-.221,21.4" transform="translate(-143.771 -579.769)" fill="none" stroke="#231f20" stroke-miterlimit="10" stroke-width="4"/>
          <path id="Path_753" data-name="Path 753" d="M154.213,650.8s47.789,9.4.221,21.4" transform="translate(-129.578 -564.333)" fill="none" stroke="#231f20" stroke-miterlimit="10" stroke-width="4"/>
          <path id="Path_754" data-name="Path 754" d="M170.087,656.474s-47.79,9.4-.221,21.4" transform="translate(-144.501 -548.746)" fill="none" stroke="#231f20" stroke-miterlimit="10" stroke-width="4"/>
          <path id="Path_755" data-name="Path 755" d="M154.3,662.145s47.786,9.407.221,21.4" transform="translate(-129.334 -533.161)" fill="none" stroke="#231f20" stroke-miterlimit="10" stroke-width="4"/>
          <path id="Path_756" data-name="Path 756" d="M170.174,667.818s-47.786,9.4-.221,21.4" transform="translate(-144.258 -517.574)" fill="none" stroke="#231f20" stroke-miterlimit="10" stroke-width="4"/>
          <line id="Line_9" data-name="Line 9" y2="172.526" transform="translate(0)" fill="none" stroke="#231f20" stroke-miterlimit="10" stroke-width="4"/>
          <line id="Line_10" data-name="Line 10" y2="172.526" transform="translate(50.97 0.545)" fill="none" stroke="#231f20" stroke-miterlimit="10" stroke-width="4"/>
        </g>
      </g>
    </g>
  </g>
</svg>
