<svg xmlns="http://www.w3.org/2000/svg" width="290" height="291" viewBox="0 0 290 291">
  <g id="Group_27" data-name="Group 27" transform="translate(-477 -1393)">
    <rect id="Rectangle_119" data-name="Rectangle 119" width="290" height="291" transform="translate(477 1393)" fill="#fcf0e3"/>
    <g id="Group_15" data-name="Group 15" transform="translate(585.939 1451.929)">
      <path id="Path_733" data-name="Path 733" d="M154.39,628.164s47.85,9.414.221,21.422" transform="translate(-127.881 -626.525)" fill="none" stroke="#231f20" stroke-miterlimit="10" stroke-width="4"/>
      <path id="Path_734" data-name="Path 734" d="M170.291,633.836s-47.85,9.414-.221,21.422" transform="translate(-142.829 -610.915)" fill="none" stroke="#231f20" stroke-miterlimit="10" stroke-width="4"/>
      <path id="Path_735" data-name="Path 735" d="M154.479,639.509s47.846,9.415.221,21.422" transform="translate(-127.636 -595.301)" fill="none" stroke="#231f20" stroke-miterlimit="10" stroke-width="4"/>
      <path id="Path_736" data-name="Path 736" d="M170.378,645.182s-47.846,9.414-.221,21.422" transform="translate(-142.586 -579.686)" fill="none" stroke="#231f20" stroke-miterlimit="10" stroke-width="4"/>
      <path id="Path_737" data-name="Path 737" d="M154.213,650.8s47.85,9.415.221,21.422" transform="translate(-128.369 -564.224)" fill="none" stroke="#231f20" stroke-miterlimit="10" stroke-width="4"/>
      <path id="Path_738" data-name="Path 738" d="M170.114,656.473s-47.85,9.414-.221,21.422" transform="translate(-143.317 -548.61)" fill="none" stroke="#231f20" stroke-miterlimit="10" stroke-width="4"/>
      <path id="Path_739" data-name="Path 739" d="M154.3,662.146s47.846,9.418.221,21.426" transform="translate(-128.124 -532.999)" fill="none" stroke="#231f20" stroke-miterlimit="10" stroke-width="4"/>
      <path id="Path_740" data-name="Path 740" d="M170.2,667.818s-47.846,9.415-.221,21.422" transform="translate(-143.073 -517.385)" fill="none" stroke="#231f20" stroke-miterlimit="10" stroke-width="4"/>
      <line id="Line_5" data-name="Line 5" y2="172.743" transform="translate(0 0)" fill="none" stroke="#231f20" stroke-miterlimit="10" stroke-width="4"/>
      <path id="Path_758" data-name="Path 758" d="M0,0V172.743" transform="translate(53.398 0.546)" fill="none" stroke="#231f20" stroke-width="4"/>
    </g>
  </g>
</svg>
