<svg xmlns="http://www.w3.org/2000/svg" width="291" height="291" viewBox="0 0 291 291">
  <g id="Group_30" data-name="Group 30" transform="translate(-1488 -1393)">
    <rect id="Rectangle_147" data-name="Rectangle 147" width="291" height="291" transform="translate(1488 1393)" fill="#fcf0e3"/>
    <g id="Group_22" data-name="Group 22" transform="translate(1618.949 1452.345)">
      <path id="Path_725" data-name="Path 725" d="M119.8,625.4s29.414,9.4.135,21.378" transform="translate(-102.805 -623.766)" fill="none" stroke="#231f20" stroke-miterlimit="10" stroke-width="4"/>
      <path id="Path_726" data-name="Path 726" d="M129.566,631.073s-29.411,9.4-.135,21.378" transform="translate(-111.987 -608.195)" fill="none" stroke="#231f20" stroke-miterlimit="10" stroke-width="4"/>
      <path id="Path_727" data-name="Path 727" d="M119.855,636.745s29.411,9.4.135,21.382" transform="translate(-102.654 -592.628)" fill="none" stroke="#231f20" stroke-miterlimit="10" stroke-width="4"/>
      <path id="Path_728" data-name="Path 728" d="M129.623,642.418s-29.414,9.4-.139,21.378" transform="translate(-111.838 -577.057)" fill="none" stroke="#231f20" stroke-miterlimit="10" stroke-width="4"/>
      <path id="Path_729" data-name="Path 729" d="M119.691,648.036s29.411,9.4.135,21.378" transform="translate(-103.104 -561.638)" fill="none" stroke="#231f20" stroke-miterlimit="10" stroke-width="4"/>
      <path id="Path_730" data-name="Path 730" d="M129.457,653.709s-29.411,9.4-.135,21.378" transform="translate(-112.286 -546.067)" fill="none" stroke="#231f20" stroke-miterlimit="10" stroke-width="4"/>
      <path id="Path_731" data-name="Path 731" d="M119.745,659.382s29.414,9.4.139,21.378" transform="translate(-102.956 -530.497)" fill="none" stroke="#231f20" stroke-miterlimit="10" stroke-width="4"/>
      <path id="Path_732" data-name="Path 732" d="M129.514,665.055s-29.414,9.4-.139,21.378" transform="translate(-112.137 -514.926)" fill="none" stroke="#231f20" stroke-miterlimit="10" stroke-width="4"/>
      <line id="Line_3" data-name="Line 3" y2="172.391" transform="translate(0)" fill="none" stroke="#231f20" stroke-miterlimit="10" stroke-width="4"/>
      <path id="Path_757" data-name="Path 757" d="M0,228.778" transform="translate(34.609 -55.905)" fill="none" stroke="#231f20" stroke-width="4"/>
    </g>
  </g>
</svg>
