<svg xmlns="http://www.w3.org/2000/svg" width="286.506" height="149.083" viewBox="0 0 286.506 149.083">
  <g id="Group_13" data-name="Group 13" transform="translate(-81.647 -856.321)">
    <path id="Path_672" data-name="Path 672" d="M140.427,915.749c0,3.44-.038,6.882.011,10.322a12.432,12.432,0,0,1-3.4,8.523,1.434,1.434,0,0,1-2.076.054,6.384,6.384,0,0,1-1.792-2.382c-.336-.84-.538-1.535.359-2.3a4.7,4.7,0,0,0,1.355-3.722q.038-10.369.005-20.74a3.957,3.957,0,0,0-3.807-4.2,4.065,4.065,0,0,0-4.007,4.151q-.056,10.03.008,20.059a5.641,5.641,0,0,0,1.776,4.069q4.529,4.483,8.941,9.081a10.127,10.127,0,0,1,2.617,7.009c.1,3.662-.091,7.331.108,10.994a6.921,6.921,0,0,0,1.127,3.665c1.168,1.661,2.529,1.943,4.719,1.387a17.923,17.923,0,0,0,2.765-.92c2.436-1.065,4.793-.663,7.157.226.968.364,1.963.66,2.944.988.233.078.613,0,.639.315s-.305.477-.573.593c-1.542.667-3.076,1.354-4.635,1.973a37.118,37.118,0,0,1-8.347,2.482,9.206,9.206,0,0,1-10.5-6.329,17.087,17.087,0,0,1-.913-5.513c-.038-3.05-.016-6.1-.007-9.154a6.32,6.32,0,0,0-1.886-4.685c-2.851-2.974-5.844-5.806-8.679-8.793a10.035,10.035,0,0,1-2.732-6.98c-.078-6.945-.108-13.892-.005-20.837a9.329,9.329,0,0,1,12.221-8.859,9.08,9.08,0,0,1,6.614,9Q140.425,910.489,140.427,915.749Z" transform="translate(13.732 13.596)" fill="#fff"/>
    <path id="Path_673" data-name="Path 673" d="M154.1,928.421c1.89.28,4.1.116,6.294.2,1.792.067,3.115,1.131,4.376,2.285,1.285,1.179,2.182,2.728,3.64,3.743,1.559,1.084,2.355,1.006,3.518-.534a57.5,57.5,0,0,0,3.222-5.2,13.323,13.323,0,0,1,6.927-6.084,17.06,17.06,0,0,0,1.971-1.042c.251-.13.547-.418.795-.22.27.215.164.582.024.9-.586,1.331-1.128,2.683-1.748,4a58.447,58.447,0,0,1-4.423,8.059,23.384,23.384,0,0,1-4.159,5.221c-1.694,1.393-3.693,1.37-5.717.87a9.287,9.287,0,0,1-4.318-2.5c-1.272-1.25-2.538-2.508-3.78-3.79a2.145,2.145,0,0,0-1.67-.622c-1.948,0-3.9-.03-5.842.008a7.636,7.636,0,0,1-5.8-2.466c-2.409-2.449-4.8-4.919-7.219-7.355a6.359,6.359,0,0,1-.195-8.851,6.222,6.222,0,0,1,8.894-.144c2.542,2.459,5.088,4.92,7.5,7.5,1.047,1.12,2.4,2.109,2.566,3.89.074.812-.047,1.128-.932,1.265a6.389,6.389,0,0,1-6.17-2.2c-1.925-2.143-4.017-4.136-6.051-6.181-.542-.544-1.112-1.247-1.975-.535-.548.452-.37,1.145.476,1.995,2.382,2.392,4.791,4.758,7.15,7.171C152.142,928.5,152.947,928.463,154.1,928.421Z" transform="translate(19.504 19.548)" fill="#fff"/>
    <path id="Path_674" data-name="Path 674" d="M156.138,904.071c2.521.112,4.95-.082,7.379.141a4.664,4.664,0,0,1,2.595,1.176.519.519,0,0,1,.079.829c-1.4,1.854-3.015,3.23-5.571,3.139-3.24-.114-6.485-.079-9.728-.079-.578,0-1.214.069-1.305.859-.09.773.319,1.1,1.047,1.225a5.808,5.808,0,0,0,.958.083c3.148,0,6.3-.011,9.445.011a2.788,2.788,0,0,0,2.156-.891c1.588-1.617,3.2-3.216,4.869-4.745a6.161,6.161,0,0,1,4.272-1.574c1.654,0,3.306.064,4.959.078a6.5,6.5,0,0,0,1.351-.116c1.343-.276,1.85-.856,1.753-2.24a36.945,36.945,0,0,0-1.748-8.319,9.244,9.244,0,0,1,.3-5.964c.445-1.285.889-2.57,1.319-3.861.09-.27.067-.691.378-.717.379-.032.446.421.559.7a76.636,76.636,0,0,1,3.517,10.068,46.938,46.938,0,0,1,1.472,8.574,5.688,5.688,0,0,1-2.487,5.088,8.106,8.106,0,0,1-4.934,1.8c-1.769.016-3.538.009-5.307,0a3.606,3.606,0,0,0-2.767,1.133c-1.428,1.455-2.828,2.937-4.352,4.3a7.447,7.447,0,0,1-5.166,1.853c-3.663.023-7.328-.023-10.991-.089a6.174,6.174,0,0,1-5.868-5.682,6.086,6.086,0,0,1,4.819-6.576C151.492,903.843,153.872,904.224,156.138,904.071Z" transform="translate(21.577 9.223)" fill="#fff"/>
    <path id="Path_675" data-name="Path 675" d="M153.8,888.337a37.965,37.965,0,0,0,0-4.286c.149-2.595,1.59-4.446,3.464-6.054a16.142,16.142,0,0,0,2.837-2.764,2.115,2.115,0,0,0-.457-3.216,46.8,46.8,0,0,0-6.375-4.08c-2.267-1.159-3.476-3.138-4.465-5.317a14.675,14.675,0,0,0-1.734-3.134c-.134-.171-.426-.4-.173-.663.176-.18.417-.043.632.044a73.119,73.119,0,0,1,10.363,5.044,43.248,43.248,0,0,1,6.469,4.611c1.936,1.729,2.116,4,1.559,6.351a9.789,9.789,0,0,1-2.773,4.7c-1.168,1.16-2.322,2.337-3.506,3.479a2.507,2.507,0,0,0-.667,1.957q-.016,2.97-.024,5.939a6.618,6.618,0,0,1-1.857,4.768c-2.767,2.819-5.551,5.627-8.441,8.317a6.019,6.019,0,0,1-8.691-.641,6.1,6.1,0,0,1,.274-8.512c2.588-2.6,5.122-5.247,7.758-7.793,1.069-1.032,2.123-2.216,3.833-2.249.632-.012.87.148.98.835a6.153,6.153,0,0,1-1.873,5.992c-2.08,1.9-4.059,3.909-6.068,5.884A7.969,7.969,0,0,0,143.8,898.8a.829.829,0,0,0,.1,1.151c.345.288.733.535,1.226.194a5.8,5.8,0,0,0,.846-.643c2.1-2.119,4.176-4.27,6.345-6.32a4.059,4.059,0,0,0,1.49-3.693A9.335,9.335,0,0,1,153.8,888.337Z" transform="translate(19.531 0.832)" fill="#fff"/>
    <path id="Path_676" data-name="Path 676" d="M134.469,886.364v5.354c0,.664.106,1.295.937,1.314s1.1-.59,1.1-1.307q.02-5.4.008-10.806a2.385,2.385,0,0,0-.886-1.67c-1.214-1.219-2.386-2.486-3.661-3.636-2.379-2.147-2.878-4.861-2.585-7.867a13.588,13.588,0,0,0-.071-3.969,1.914,1.914,0,0,0-2.306-1.679,55.534,55.534,0,0,0-7.476,1.569,9.624,9.624,0,0,1-6.789-.66,10.807,10.807,0,0,0-3.4-1.109c-.229-.028-.491-.061-.5-.337-.011-.25.277-.237.44-.307A67.829,67.829,0,0,1,126.2,856.42c5.361-.789,7.84,3.283,8.253,6.906a23.416,23.416,0,0,1,.065,5.051,4.815,4.815,0,0,0,1.745,4.161c1.155,1.139,2.292,2.295,3.447,3.433a6.7,6.7,0,0,1,2.034,4.884q.05,5.209.02,10.417c-.013,2.69-.836,4.977-3.411,6.279a6.183,6.183,0,0,1-9.1-5.4c-.078-4.344.036-8.691.066-13.036,0-.032,0-.066,0-.1.173-1.09.522-2.3,1.5-2.68.78-.3,1.455.749,2.064,1.34a4.988,4.988,0,0,1,1.6,3.916C134.425,883.182,134.468,884.774,134.469,886.364Z" transform="translate(9.363 0)" fill="#fff"/>
    <path id="Path_677" data-name="Path 677" d="M204.64,942.06c0-4.448-.022-8.9.009-13.343a5.744,5.744,0,0,1,2.152-4.96,4.83,4.83,0,0,1,2.517-.911,18.846,18.846,0,0,1,4.338-.09c1.383.2,2.812-.112,4.233.031a10.867,10.867,0,0,1,4.86,1.5,6.31,6.31,0,0,1,2.663,3.7,11.451,11.451,0,0,1-.167,7.06,6.9,6.9,0,0,1-5.2,4.5,14.663,14.663,0,0,1-3.636.544c-.192,0-.383.069-.575.075-.569.021-.992.3-.968.863.026.61.516.856,1.1.86q1.559.012,3.117,0a16.767,16.767,0,0,1,4.221.519,5.976,5.976,0,0,1,4.8,5.72c.156,1.982.253,3.963-.809,5.759-1.324,2.241-3.53,3.023-5.923,3.451a52.466,52.466,0,0,1-9.4.378c-1.049,0-1.59-.7-1.559-1.819a1.642,1.642,0,0,1,1.691-1.824c1.944-.024,3.892.044,5.832-.125a11.793,11.793,0,0,0,4.51-1,3.7,3.7,0,0,0,1.949-3.9,3.417,3.417,0,0,0-2.748-3.236c-1.761-.433-3.553-.12-5.328-.225a7.722,7.722,0,0,1-3.2-.632c-2.026-1.047-2.439-3.679-1.662-5.8a3.708,3.708,0,0,1,3.023-2.427c1.2-.227,2.425-.363,3.627-.6,2.346-.464,3.427-1.737,3.663-4.232.223-2.345-.676-4.151-2.5-4.9a7.171,7.171,0,0,0-2.655-.51c-1.85-.024-3.7-.012-5.552,0a1.921,1.921,0,0,0-2.221,1.9,7.807,7.807,0,0,0-.122,1.347q-.012,13-.007,26a1.751,1.751,0,0,1-1.922,2,1.88,1.88,0,0,1-2.159-2.039Q204.63,948.876,204.64,942.06Z" transform="translate(42.348 22.842)" fill="#fff"/>
    <path id="Path_678" data-name="Path 678" d="M112.5,885.148a22.249,22.249,0,0,1-4.684-.241c-2.182-.534-3.568-2.146-4.992-3.7a13.5,13.5,0,0,0-2.744-2.589,1.806,1.806,0,0,0-2.712.538,38.489,38.489,0,0,0-3.493,5.251,10.328,10.328,0,0,1-6.1,5.228,11.536,11.536,0,0,0-2.527,1.233c-.234.149-.523.415-.789.193s-.009-.562.089-.8A75.414,75.414,0,0,1,88.34,882.4a66.671,66.671,0,0,1,4.563-6.852c2.232-3.029,5.083-3.3,8.261-2.182a8.593,8.593,0,0,1,3.151,2.049q1.841,1.809,3.649,3.65a2.759,2.759,0,0,0,2.148.9c2.268-.036,4.538-.012,6.805.086a6.052,6.052,0,0,1,3.994,1.793c2.605,2.534,5.168,5.113,7.729,7.692,3.579,3.605,2.292,8.68-1.594,10.472a5.689,5.689,0,0,1-6.59-1c-2.12-1.948-4.1-4.052-6.123-6.1a39.444,39.444,0,0,1-3.5-3.646,3.8,3.8,0,0,1-.382-.559c-.979-1.921-.551-2.569,1.573-2.654a5.822,5.822,0,0,1,4.758,1.941c2.186,2.31,4.483,4.513,6.719,6.774.507.512,1.062.9,1.662.29s.29-1.23-.246-1.772c-2.254-2.283-4.517-4.559-6.742-6.871a3.541,3.541,0,0,0-3.095-1.273A25.128,25.128,0,0,1,112.5,885.148Z" transform="translate(0.927 5.659)" fill="#fff"/>
    <path id="Path_679" data-name="Path 679" d="M111.281,910.924c-2.109,0-4.22-.024-6.33.008a4.578,4.578,0,0,1-3.187-1.2c-.351-.3-.317-.5-.1-.8,1.316-1.83,2.831-3.216,5.34-3.132,3.144.1,6.3.026,9.445.024a5.792,5.792,0,0,0,.778-.013c.637-.086,1.133-.346,1.085-1.105-.046-.708-.527-.91-1.14-.916-.975-.008-1.948.012-2.923-.005-2.362-.043-4.724-.1-7.086-.153a3.542,3.542,0,0,0-2.768,1.124c-1.494,1.528-2.951,3.1-4.576,4.5-1.7,1.472-3.716,1.658-5.826,1.645a29.573,29.573,0,0,0-4.244-.082c-1.948.263-2.608,1.066-2.267,3.01a51.156,51.156,0,0,0,1.55,6.9,6.657,6.657,0,0,1-.07,4.288c-.6,1.744-1.2,3.486-1.823,5.223-.081.227-.147.563-.466.55-.281-.011-.383-.273-.485-.534a69.816,69.816,0,0,1-4.459-16.44c-.558-4.259,1.961-6.56,5.184-7.671a8.236,8.236,0,0,1,2.963-.434,21.235,21.235,0,0,1,3.014.035c2.371.419,4.01-.706,5.509-2.3.913-.969,1.867-1.9,2.814-2.834a6.791,6.791,0,0,1,4.969-2.084c3.6.011,7.207,0,10.81,0a6.016,6.016,0,0,1,5.924,3.468,6.147,6.147,0,0,1-1.042,7.122,5.309,5.309,0,0,1-4.063,1.793C115.632,910.928,113.457,910.924,111.281,910.924Z" transform="translate(0 14.537)" fill="#fff"/>
    <path id="Path_680" data-name="Path 680" d="M110.3,931.263c0,1.3.065,2.6-.017,3.888a6.005,6.005,0,0,1-1.917,3.925c-1.239,1.231-2.5,2.441-3.759,3.657-1.535,1.484-1.469,2.738.28,3.98,1.424,1.011,2.845,2.039,4.353,2.909a8.306,8.306,0,0,1,3.69,4.329c.5,1.26,1.137,2.466,1.7,3.7.125.273.438.6.168.858-.251.239-.621.007-.907-.125-1.588-.731-3.2-1.417-4.741-2.23a89.4,89.4,0,0,1-8.008-5.095c-3.123-2.1-3.437-5.559-2.459-8.625a7.553,7.553,0,0,1,1.89-2.9,27.753,27.753,0,0,1,2.908-2.87,4.965,4.965,0,0,0,1.787-4.349c0-1.623.007-3.245,0-4.868a6.55,6.55,0,0,1,1.986-4.793q3.8-3.843,7.636-7.647a6.326,6.326,0,0,1,8.541-.68,6.046,6.046,0,0,1,.965,8.787c-3.069,3.327-6.309,6.5-9.623,9.593a4.673,4.673,0,0,1-2.565,1.022c-.45.079-.7-.085-.789-.6a6.357,6.357,0,0,1,1.956-6.332c2.263-2.039,4.341-4.285,6.5-6.443a4.5,4.5,0,0,0,.574-.655.822.822,0,0,0-.167-1.131c-.331-.339-.674-.51-1.108-.207a5.5,5.5,0,0,0-.684.532c-2.293,2.244-4.564,4.51-6.875,6.735a3.533,3.533,0,0,0-1.26,3c.075.87.015,1.752.015,2.628Z" transform="translate(5.697 19.508)" fill="#fff"/>
    <path id="Path_681" data-name="Path 681" d="M220.176,891.582a15.889,15.889,0,0,1-9.42-2.422,10.929,10.929,0,0,1-4.637-7.744,1.111,1.111,0,0,1,.1-.558,2.46,2.46,0,0,1,2.476-1.359,1.778,1.778,0,0,1,1.908,1.471c.886,4.056,3.792,5.732,7.52,6.356a12.843,12.843,0,0,0,7.136-.792c3.105-1.284,4.383-5.039,2.457-7.423a7.7,7.7,0,0,0-3.963-2.308c-3.214-.99-6.543-1.557-9.732-2.647a9.74,9.74,0,0,1-5.525-4.026,8.016,8.016,0,0,1-.477-7.626c1.7-4.017,5.184-5.364,9.145-5.891a17.329,17.329,0,0,1,8.217.864,9.616,9.616,0,0,1,6.445,7.048,1.937,1.937,0,0,1-1.492,2.675,2.188,2.188,0,0,1-2.862-1.434c-1.05-3.6-3.665-5.069-7.426-5.095a13.944,13.944,0,0,0-5.061.637,4.562,4.562,0,0,0-2.838,6.017c.824,1.746,2.556,2.218,4.185,2.693,2.542.741,5.131,1.312,7.691,1.992a15.875,15.875,0,0,1,5.66,2.477,8.777,8.777,0,0,1,2.306,11.313c-1.883,3.463-5.02,4.965-8.706,5.635A19.918,19.918,0,0,1,220.176,891.582Z" transform="translate(42.857 0.045)" fill="#fff"/>
    <path id="Path_682" data-name="Path 682" d="M273.359,957.8a17.478,17.478,0,0,1-8.374-1.754,10.964,10.964,0,0,1-5.834-8.343,1.356,1.356,0,0,1,.366-1.166,2.7,2.7,0,0,1,2.648-.829,1.909,1.909,0,0,1,1.535,1.66c.965,4.146,4.244,5.672,7.8,6.2a11.683,11.683,0,0,0,7.43-1.2,4.76,4.76,0,0,0,2.111-6.609c-.961-1.588-2.6-2.265-4.3-2.787-3.491-1.072-7.137-1.592-10.54-2.97a8.489,8.489,0,0,1-.458-16.015,16.988,16.988,0,0,1,14.191.346,9.221,9.221,0,0,1,4.977,6.7,1.88,1.88,0,0,1-1.2,2.273,2.512,2.512,0,0,1-3.025-.858,5.452,5.452,0,0,1-.4-.989,5.682,5.682,0,0,0-3.743-4.016,11.966,11.966,0,0,0-9.334.485,4.215,4.215,0,0,0-1.769,6.021c.949,1.418,2.514,1.874,4.041,2.32,3.351.977,6.825,1.5,10.1,2.744a10.274,10.274,0,0,1,5.209,3.87,9.294,9.294,0,0,1-.706,10.545,11.907,11.907,0,0,1-8.128,4.213C275.111,957.751,274.23,957.745,273.359,957.8Z" transform="translate(61.114 22.82)" fill="#fff"/>
    <path id="Path_683" data-name="Path 683" d="M240.773,941.739q0-6.916,0-13.831c0-3.2,1.238-4.884,4.366-5.037,3.345-.164,6.759-.5,10.054.467a7.7,7.7,0,0,1,5.961,7.165,10.491,10.491,0,0,1-1.463,6.868,6.224,6.224,0,0,1-4.723,2.69c-.928.117-1.873.086-2.81.134-.5.026-1.028.089-1.031.757,0,.625.476.639.959.7a47.65,47.65,0,0,0,4.86.1,3.519,3.519,0,0,1,3.769,2.553q2.208,5.65,4.354,11.325c.548,1.445.073,2.111-1.457,2.09a2.644,2.644,0,0,1-2.642-1.769c-1.059-2.743-2.1-5.494-3.155-8.238-.726-1.881-.825-2.136-3.193-2.28a23.415,23.415,0,0,1-4.165-.159,4.42,4.42,0,0,1-3.179-4.655,4.3,4.3,0,0,1,3.64-3.967,12.082,12.082,0,0,1,2.42-.125c2.644.148,4.245-1.776,4.4-4.284a5.138,5.138,0,0,0-4.068-5.506,12.107,12.107,0,0,0-5-.29,15.4,15.4,0,0,1-1.847.027c-1.507.026-2.03.558-2.031,2.085q0,13.684.015,27.368c0,.808-.173,1.39-.953,1.7a2.986,2.986,0,0,1-2.822-.374,1.617,1.617,0,0,1-.266-1.2Q240.774,948.9,240.773,941.739Z" transform="translate(54.791 22.849)" fill="#fff"/>
    <path id="Path_684" data-name="Path 684" d="M288.98,924.765c-3.972,0-7.3-.614-10.12-2.865a15.69,15.69,0,0,1-5.293-8.73,22.3,22.3,0,0,1,.592-13.981c2.123-5.447,6.273-8.42,11.957-9.252,4.091-.6,8.018-.109,11.42,2.525a13.081,13.081,0,0,1,3.814,4.833c.694,1.459.5,2.521-.647,3.07a2.551,2.551,0,0,1-3.622-1.132,8.871,8.871,0,0,0-3.323-4.18,10.055,10.055,0,0,0-7.476-1.129c-4.423.848-7.343,3.934-8.277,8.679a22.132,22.132,0,0,0,.692,11.538,10,10,0,0,0,9.124,6.657,9.451,9.451,0,0,0,8.567-4.184,12.959,12.959,0,0,0,1.359-2.893,2.131,2.131,0,0,1,2.915-1.293,2.094,2.094,0,0,1,1.535,2.862c-1.6,4.479-4.5,7.63-9.183,8.953A12.7,12.7,0,0,1,288.98,924.765Z" transform="translate(65.795 11.497)" fill="#fff"/>
    <path id="Path_685" data-name="Path 685" d="M223.393,907.177a17.633,17.633,0,0,0,1.779,8.433,9.415,9.415,0,0,0,8.132,5.156,9.309,9.309,0,0,0,7.372-2.332,10.274,10.274,0,0,0,2.744-4.383A2.212,2.212,0,0,1,246.6,912.5c1.362.441,1.824,1.5,1.326,3.03a13.388,13.388,0,0,1-12.8,9.238,18.9,18.9,0,0,1-7.694-1.237,12.812,12.812,0,0,1-6.926-7.136,22.6,22.6,0,0,1-.444-17.385,13.925,13.925,0,0,1,10.454-8.819,16.435,16.435,0,0,1,9.373.388,12.543,12.543,0,0,1,7.616,7.535,1.6,1.6,0,0,1-.676,2.034,2.5,2.5,0,0,1-3.9-.918c-1.028-2.129-2.316-3.962-4.645-4.834-5.391-2.022-12.54.172-14.181,7.3-.21.911-.333,1.843-.559,2.749A15.672,15.672,0,0,0,223.393,907.177Z" transform="translate(47.134 11.491)" fill="#fff"/>
    <path id="Path_686" data-name="Path 686" d="M208,912.552c-.747,0-1.494-.018-2.24,0a2.35,2.35,0,0,0-2.605,1.856q-1.551,4.233-3.083,8.473a2.831,2.831,0,0,1-3.128,1.9c-1.09-.147-1.487-.731-1.117-1.755,1.106-3.072,2.238-6.134,3.364-9.2.268-.729.608-1.437.805-2.183a3.733,3.733,0,0,1,3.743-2.78c2.007-.042,4.014-.1,6.02-.144.46-.011,1.031.01,1.026-.606s-.5-.819-1.1-.817c-1.328,0-2.662.035-3.986-.057-2.824-.192-3.232-1.5-2.592-4.062.414-1.658,1.086-3.251,1.666-4.864.667-1.858,1.359-3.7,2.041-5.557a4.15,4.15,0,0,1,8.01-.03q4.973,13.523,9.908,27.057c.378,1.032.747,2.069,1.094,3.112a1.264,1.264,0,0,1-.989,1.838,3.108,3.108,0,0,1-3.686-2.089q-3.987-11.458-7.979-22.916c-.585-1.679-1.186-3.353-1.773-5.032-.12-.344-.23-.754-.635-.774-.471-.023-.578.413-.708.789-.893,2.565-1.807,5.124-2.691,7.693-.378,1.1-.274,1.194.9,1.223.807.02,1.608.018,2.42.1,2.636.281,3.728,2.99,3.42,4.912-.393,2.459-2,4.155-4.642,3.908C208.974,912.513,208.483,912.55,208,912.552Z" transform="translate(39.268 11.497)" fill="#fff"/>
    <path id="Path_687" data-name="Path 687" d="M194.808,879.3c-.969.125-1.94-.012-2.913.138a2.075,2.075,0,0,0-1.78,1.436q-1.234,3.376-2.468,6.748c-.278.757-.548,1.516-.85,2.265a2.907,2.907,0,0,1-2.753,1.76c-1.252-.062-1.738-.753-1.319-1.961.637-1.834,1.313-3.653,1.982-5.476q1.149-3.14,2.311-6.275a3.4,3.4,0,0,1,3.394-2.263c2.039-.073,4.081-.074,6.122-.113.445-.009.976.055,1.043-.587s-.394-.811-.911-.911c-1.036-.2-2.055.179-3.093.073a9.479,9.479,0,0,1-2.388-.344,2.327,2.327,0,0,1-1.515-2.69,52.893,52.893,0,0,1,2.283-6.9c.523-1.6,1.175-3.148,1.737-4.733a3.931,3.931,0,0,1,3.889-2.9A3.821,3.821,0,0,1,201.6,859.4q5.408,14.807,10.819,29.613c.25.686.7,1.46,0,2.076a2.434,2.434,0,0,1-2.487.3,2.871,2.871,0,0,1-1.914-1.89c-1.784-5.2-3.614-10.392-5.434-15.582-1.468-4.184-2.949-8.364-4.416-12.548-.11-.313-.195-.676-.582-.664-.358.009-.51.321-.624.653-.929,2.693-1.859,5.385-2.822,8.066-.274.761-.038,1.016.722.993a14.954,14.954,0,0,1,2.237.019c2.474.3,3.784,1.6,3.893,4.142a4.334,4.334,0,0,1-3.272,4.68A14.461,14.461,0,0,1,194.808,879.3Z" transform="translate(34.754 0.084)" fill="#fff"/>
    <path id="Path_688" data-name="Path 688" d="M246.588,879.368c-.778,0-1.558-.015-2.336,0a2.449,2.449,0,0,0-2.55,1.826q-1.555,4.287-3.113,8.571a2.84,2.84,0,0,1-3.42,1.749c-.727-.276-1.108-.738-.8-1.583,1.465-4.011,2.88-8.042,4.384-12.039a3.532,3.532,0,0,1,3.564-2.218c1.975-.051,3.951-.081,5.927-.1.526-.005,1.049-.055,1.1-.676.046-.567-.444-.7-.917-.8a3.822,3.822,0,0,0-1.445-.036,10.552,10.552,0,0,1-3.665-.161,2.086,2.086,0,0,1-1.883-2.322,12.808,12.808,0,0,1,1.2-4.469c.932-2.62,1.878-5.236,2.866-7.835a4.158,4.158,0,0,1,5.477-2.464,3.926,3.926,0,0,1,2.32,2.483c1.578,4.244,3.088,8.514,4.642,12.766,1.753,4.8,3.529,9.587,5.291,14.38.379,1.032.758,2.066,1.1,3.112.4,1.226-.122,1.944-1.409,2a3.021,3.021,0,0,1-3.288-2.266q-3.672-10.544-7.368-21.081c-.768-2.2-1.514-4.408-2.275-6.611-.125-.359-.179-.855-.637-.886s-.569.452-.7.812c-.914,2.56-1.846,5.114-2.729,7.684-.378,1.1-.255,1.21.886,1.235a12.719,12.719,0,0,1,2.709.139c2.264.534,3.428,2.349,3.124,4.939a4.109,4.109,0,0,1-4.111,3.854C247.887,879.367,247.238,879.368,246.588,879.368Z" transform="translate(52.55 0.07)" fill="#fff"/>
    <path id="Path_689" data-name="Path 689" d="M235.721,957.739c-1.882,0-3.764,0-5.648,0-3.038-.008-5.26-1.764-5.455-5.068a30.309,30.309,0,0,1,.179-7.645c.437-2.231,1.744-3.217,4.05-3.25,1.655-.023,3.311,0,4.966-.007a3.427,3.427,0,0,0,.773-.048.956.956,0,0,0,.836-.839c.026-.477-.423-.6-.8-.695a10.527,10.527,0,0,0-2.424-.094c-1.3-.019-2.6,0-3.895,0a3.407,3.407,0,0,1-3.678-3.5,75.542,75.542,0,0,1,0-8.93,5.085,5.085,0,0,1,4.787-4.848c3.919-.311,7.84-.089,11.76-.139,1.424-.019,2.074.636,2.039,1.866a1.87,1.87,0,0,1-2.132,1.951c-3.408,0-6.816,0-10.224.005-1.412,0-2.121.668-2.132,2.047-.019,2.272.019,4.544-.015,6.814-.012.848.371,1.18,1.159,1.182,1.623,0,3.247.015,4.869,0,2.691-.024,4.255,1.583,4.43,4.252a4.31,4.31,0,0,1-4.016,4.536,48.2,48.2,0,0,1-5.34.112c-.79.009-1.11.316-1.1,1.1.023,1.784-.012,3.569.015,5.354.023,1.514.722,2.183,2.236,2.187,3.408.007,6.817.052,10.222-.023a1.929,1.929,0,0,1,2,2.515,1.3,1.3,0,0,1-1.421,1.184C239.746,957.719,237.733,957.739,235.721,957.739Z" transform="translate(49.177 22.835)" fill="#fff"/>
    <path id="Path_690" data-name="Path 690" d="M182.386,908.662V894.545c0-2.978,1.818-4.832,4.789-4.778,2.714.048,5.447-.276,8.141.3,3.343.719,6.031,2.413,7.12,5.761,1.656,5.084.477,10.622-5,13.56a11.365,11.365,0,0,1-5.213,1.343c-.808.016-1.616.115-2.421.1-1.461-.032-2.129-.688-2.09-1.96.038-1.21.727-1.819,2.15-1.808a13.116,13.116,0,0,0,4.04-.393,6.741,6.741,0,0,0,4.8-8.078c-.637-3.591-3.214-4.907-6.665-5.125-1.293-.081-2.6-.023-3.893-.011a1.439,1.439,0,0,0-1.67,1.475,7.074,7.074,0,0,0-.031.971q0,13.388,0,26.776c0,.673.122,1.416-.686,1.758a2.981,2.981,0,0,1-2.884-.074c-.526-.325-.493-.86-.492-1.389Q182.389,915.818,182.386,908.662Z" transform="translate(34.686 11.5)" fill="#fff"/>
    <path id="Path_691" data-name="Path 691" d="M260.76,889.748c2.151,0,3.936-.017,5.722.005a1.868,1.868,0,0,1,1.729,2.85,1.6,1.6,0,0,1-1.609.854c-3.213-.026-6.427,0-9.64-.017-2.605-.015-3.064.77-3.174,3.194-.081,1.781-.026,3.569-.011,5.354.009,1.28.362,1.625,1.616,1.629,1.689,0,3.376,0,5.064,0a4.01,4.01,0,0,1,4.184,4.138,4.322,4.322,0,0,1-4.171,4.656c-1.557.028-3.116,0-4.673.009-1.84.013-2.023.2-2.025,1.992q0,4.285,0,8.57a1.814,1.814,0,0,1-1.9,1.855,2.106,2.106,0,0,1-2.167-1.877c-.008-2.986-.019-5.973.008-8.959a9.421,9.421,0,0,1,.259-2.013,3.815,3.815,0,0,1,4-3.126c1.753-.021,3.506,0,5.259-.007a4.259,4.259,0,0,0,.776-.026c.465-.089.946-.281.917-.829-.03-.57-.476-.8-1.03-.8-1.916,0-3.83,0-5.746,0-3.4,0-4.3-1.363-4.4-4.236a60.78,60.78,0,0,1,.1-8.453,5.013,5.013,0,0,1,4.58-4.619C256.659,889.612,258.894,889.844,260.76,889.748Z" transform="translate(57.848 11.508)" fill="#fff"/>
    <path id="Path_692" data-name="Path 692" d="M193.578,922.77c1.914,0,3.83-.005,5.744,0,1.211.007,1.748.535,1.752,1.694,0,1.246-.6,1.964-1.752,1.969-3.472.017-6.945,0-10.417.007-1.612,0-2.359.752-2.365,2.383-.007,2.108.035,4.219-.016,6.326-.021.9.325,1.315,1.191,1.409a12.2,12.2,0,0,0,2.612,0,8.484,8.484,0,0,1,4.848.489c1.811.925,2.5,3,1.933,5.221a4.337,4.337,0,0,1-4.208,3.122c-1.655.035-3.31,0-4.965.011-1.238.008-1.4.173-1.4,1.4q0,4.479,0,8.956a2.163,2.163,0,0,1-2,2.089,2.1,2.1,0,0,1-2.081-2.076c0-3.147,0-6.294,0-9.443,0-2.451,1.5-4.709,4.508-4.506,1.865.126,3.751-.065,5.627-.1.573-.011.981-.227.964-.833-.016-.579-.484-.721-.969-.723-1.881-.012-3.764,0-5.646-.015a9.88,9.88,0,0,1-1.643-.128,3.315,3.315,0,0,1-2.831-3.518c-.034-2.954-.056-5.907.007-8.859.062-2.827,2.377-4.852,5.458-4.877C189.814,922.756,191.7,922.768,193.578,922.77Z" transform="translate(34.704 22.878)" fill="#fff"/>
    <path id="Path_693" data-name="Path 693" d="M125.626,940.162c0-1.849-.075-3.7.017-5.547a10.674,10.674,0,0,1,3.273-6.751c.286-.309.589-.6.889-.9.862-.859,1.288-.907,2.164-.03a5.417,5.417,0,0,1,1.476,2.471,2.012,2.012,0,0,1-.483,2.039,7.287,7.287,0,0,0-1.881,5.228c0,3.5.225,7.012-.11,10.5-.345,3.577-1.619,6.739-4.81,8.783-2.47,1.581-5.147,1.495-7.847.792-1.218-.317-2.389-.808-3.592-1.188a4.458,4.458,0,0,1-2.8-2.519c-.661-1.44-1.292-2.9-1.913-4.354-.117-.274-.4-.624-.079-.884.231-.187.563.013.819.132a66.922,66.922,0,0,0,9.113,3.326c2.866.86,4.317.086,5.2-2.793a12.443,12.443,0,0,0,.543-3.628c.007-1.558,0-3.115,0-4.673Z" transform="translate(9.689 24.094)" fill="#fff"/>
    <path id="Path_694" data-name="Path 694" d="M247.59,952.348h64.367c.227,0,.456.011.682,0a.6.6,0,0,1,.721.6.748.748,0,0,1-.613.862,3.762,3.762,0,0,1-.872.032H183.628a10.1,10.1,0,0,1-1.262-.047c-.426-.054-.57-.363-.569-.773a.586.586,0,0,1,.648-.668c.487-.008.973-.007,1.461-.007Z" transform="translate(34.485 33.064)" fill="#fff"/>
    <path id="Path_695" data-name="Path 695" d="M91.917,908.162a13.725,13.725,0,0,1-6.353-1,6.191,6.191,0,0,1-3.778-6.86,67.822,67.822,0,0,1,1.748-8.735,6.221,6.221,0,0,1,3.72-4.29c1.241-.558,2.478-1.125,3.728-1.66.239-.1.554-.368.788-.086.171.206-.038.487-.143.719a53.223,53.223,0,0,0-4.1,13.821c-.3,1.928.4,2.808,2.361,2.847,2.007.04,4.014-.074,6.021.132a6.593,6.593,0,0,1,3.24,1.176c.265.188.406.329.312.7a5.7,5.7,0,0,1-3.562,3.33,7.953,7.953,0,0,1-1.145-.085C93.945,908.151,93.133,908.162,91.917,908.162Z" transform="translate(0.022 10.013)" fill="#fff"/>
    <path id="Path_696" data-name="Path 696" d="M97.432,938.657a6.345,6.345,0,0,1-5.043-2.459,47.234,47.234,0,0,1-5.673-8.667,5.394,5.394,0,0,1,.281-4.92c.495-1.054,1.018-2.093,1.451-3.177.1-.249.175-.64.514-.641.367,0,.362.39.456.653a45.728,45.728,0,0,0,6.653,12.212c1.351,1.785,2.249,1.827,3.857.3,1.732-1.647,3.214-3.571,5.317-4.809,2.166-1.274,3.065-.838,3.214,1.621a4.044,4.044,0,0,1-1.606,3.718c-1.367,1.077-2.479,2.471-3.771,3.653A8.922,8.922,0,0,1,97.432,938.657Z" transform="translate(1.58 21.511)" fill="#fff"/>
    <path id="Path_697" data-name="Path 697" d="M98.323,871.689c-.121-2.026,1.07-3.552,2.591-4.837a41.264,41.264,0,0,1,7.45-5.064,5.843,5.843,0,0,1,4.708-.309c1.539.5,3.044,1.1,4.56,1.671.194.071.508.059.469.375-.031.255-.3.312-.51.39a51.587,51.587,0,0,0-5.294,2.416,50.281,50.281,0,0,0-7.555,4.719,1.72,1.72,0,0,0-.376,2.756,25.569,25.569,0,0,0,2.615,2.743,13.75,13.75,0,0,1,3,3.78c.027.058.062.114.089.172.786,1.707.4,2.339-1.46,2.508a4.383,4.383,0,0,1-4.228-1.512c-1.351-1.692-3.092-3.043-4.376-4.8A7.777,7.777,0,0,1,98.323,871.689Z" transform="translate(5.739 1.655)" fill="#fff"/>
    <path id="Path_698" data-name="Path 698" d="M151.738,866.242c-2.245-.829-4.426-1.628-6.644-2.324a55,55,0,0,0-7.836-1.791c-1.507-.241-2.367.59-2.449,2.117-.108,2-.137,4-.159,6.009a6.313,6.313,0,0,1-.967,3.31.9.9,0,0,1-1.374.4,6.855,6.855,0,0,1-2.566-2.453,1.853,1.853,0,0,1-.3-1.207c.273-2.1.027-4.21.147-6.31a9.321,9.321,0,0,1,2.018-5.555c1.48-1.787,3.534-2.166,5.723-1.974a47.909,47.909,0,0,1,8.631,1.7,5.6,5.6,0,0,1,3.67,3.49C150.292,863.195,150.956,864.725,151.738,866.242Z" transform="translate(16.453 0.035)" fill="#fff"/>
    <path id="Path_699" data-name="Path 699" d="M173.7,892.257a9.478,9.478,0,0,1-1.36-2.772,51.5,51.5,0,0,0-5.1-8.891,10.805,10.805,0,0,0-1.059-1.381c-.915-.922-1.85-.743-2.862.094-1.969,1.628-3.436,3.8-5.668,5.134a7.53,7.53,0,0,1-2.111.7c-.448.116-.643-.169-.808-.518a4.67,4.67,0,0,1,1.027-5.23c1.848-1.718,3.4-3.764,5.6-5.095,2.23-1.351,4.575-1.813,7.007-.6a10.244,10.244,0,0,1,3.338,3.329,50.752,50.752,0,0,1,3.924,6.129,4.255,4.255,0,0,1,.219,3.237C175.272,888.337,174.459,890.216,173.7,892.257Z" transform="translate(25.027 5.74)" fill="#fff"/>
    <path id="Path_700" data-name="Path 700" d="M168.743,909.378c-1.335-.058-2.847.2-4.284-.319-2.858-1.031-2.832-1.309-.992-3.544a3.71,3.71,0,0,1,3.546-1.291c1.7.18,3.435,0,5.151.065a9.044,9.044,0,0,1,5.959,2.218,6.182,6.182,0,0,1,1.765,5.6,77.516,77.516,0,0,1-1.476,7.78,5.917,5.917,0,0,1-3.5,4.141c-1.215.6-2.46,1.144-3.7,1.7-.276.125-.6.458-.864.168-.243-.265.05-.606.173-.891a51.8,51.8,0,0,0,3.634-12.719c.3-1.94-.456-2.837-2.451-2.9C170.771,909.353,169.83,909.378,168.743,909.378Z" transform="translate(27.731 16.483)" fill="#fff"/>
    <path id="Path_701" data-name="Path 701" d="M233.04,874.288q0,7.689,0,15.38a1.882,1.882,0,0,1-2.034,2.156,2.016,2.016,0,0,1-2.327-2.119q-.018-15.382,0-30.761c0-2.007,1.469-2.988,3.214-2.254a1.824,1.824,0,0,1,1.151,1.925C233.03,863.839,233.038,869.063,233.04,874.288Z" transform="translate(50.624 0.043)" fill="#fff"/>
    <path id="Path_702" data-name="Path 702" d="M198.706,940.353q0-7.691,0-15.383c0-1.538.758-2.323,2.228-2.315,1.352.007,2.127.833,2.127,2.335q.01,15.285.007,30.571a1.873,1.873,0,0,1-1.125,1.959,2.745,2.745,0,0,1-2.827-.352,1.569,1.569,0,0,1-.411-1.334Q198.709,948.093,198.706,940.353Z" transform="translate(40.306 22.841)" fill="#fff"/>
    <path id="Path_703" data-name="Path 703" d="M153.781,929.12a3.609,3.609,0,0,1,3.185,1.436c1.223,1.5,2.756,2.747,4.025,4.215a8.556,8.556,0,0,1,2.217,5.161c.151,2.574-1.163,4.338-3.1,5.787-1.632,1.221-3.334,2.332-5.076,3.392a4.794,4.794,0,0,1-3.948.246c-1.527-.415-3.006-1.01-4.5-1.534-.2-.07-.505-.078-.483-.382.019-.251.276-.323.487-.411a52.907,52.907,0,0,0,9.811-5.642c1.593-1.113,1.549-2.109.293-3.583-1.512-1.773-3.411-3.185-4.709-5.143a4.975,4.975,0,0,1-.472-.84c-.866-2.117-.518-2.639,1.785-2.7C153.457,929.117,153.62,929.121,153.781,929.12Z" transform="translate(22.193 25.066)" fill="#fff"/>
    <path id="Path_704" data-name="Path 704" d="M243.181,907.169V892.074c0-1.533.7-2.324,2.058-2.328,1.565-.005,2.271.7,2.269,2.353q0,15.241-.02,30.481c0,1.5-.715,2.166-2.242,2.16-1.463,0-2.065-.64-2.065-2.185Z" transform="translate(55.621 11.509)" fill="#fff"/>
    <path id="Path_705" data-name="Path 705" d="M270.764,907.3q0,7.644,0,15.29c0,1.566-.625,2.179-2.191,2.163a1.965,1.965,0,0,1-2.138-2.2q0-15.243,0-30.483a2.18,2.18,0,0,1,3-2.232,1.721,1.721,0,0,1,1.334,1.877C270.753,896.911,270.764,902.106,270.764,907.3Z" transform="translate(63.627 11.497)" fill="#fff"/>
    <path id="Path_706" data-name="Path 706" d="M193.812,959.176c-.671,2.455-1.331,4.912-2.023,7.36-.12.426-.046,1.039-.717,1.119-.758.09-1.3.028-1.533-.963-.708-3.091-1.557-6.149-2.322-9.226-.073-.29-.477-.837.234-.89.512-.038,1.164-.3,1.359.628.479,2.275,1.046,4.53,1.573,6.794a1.611,1.611,0,0,0,.454.985c.378-1.361.737-2.642,1.086-3.924.359-1.312.742-2.619,1.047-3.943.147-.641.559-.573,1.012-.574s.854-.021,1.011.6c.594,2.35,1.237,4.689,1.883,7.026a1.243,1.243,0,0,0,.415.882c.354-1.443.692-2.822,1.031-4.2.294-1.2.637-2.382.864-3.589.165-.868.765-.777,1.315-.69.718.116.331.624.235.983-.843,3.154-1.719,6.3-2.522,9.463-.176.694-.593.613-1.078.661-.567.056-.808-.187-.945-.71-.635-2.406-1.293-4.8-1.949-7.2-.058-.213-.155-.414-.234-.621Z" transform="translate(36.29 34.499)" fill="#fff"/>
    <path id="Path_707" data-name="Path 707" d="M229.352,959.4c0-.282-.04-.565-.39-.565s-.874-.215-1.035.229c-.188.5-.376.309-.618.134a3.242,3.242,0,0,0-3.657.013,4,4,0,0,0-1.761,3.872c.027,1.465.444,2.931,2.017,3.576a3.872,3.872,0,0,0,3.872-.417,2.318,2.318,0,0,1-1.223,2.554,2.5,2.5,0,0,1-2.769-.766,1.028,1.028,0,0,0-1.385-.188c-.4.229-.013.686.134,1.022a1.159,1.159,0,0,0,.35.457,4.708,4.708,0,0,0,4.167.618,2.793,2.793,0,0,0,2.164-2.689C229.527,964.638,229.285,962.016,229.352,959.4Zm-3.428,6.292a1.855,1.855,0,0,1-.941-.081c-1.21-.323-1.869-2.111-1.412-3.778a2.07,2.07,0,0,1,2.729-1.721,2.6,2.6,0,0,1,1.559,2.729C227.846,964.4,227.107,965.444,225.924,965.687Z" transform="translate(48.29 35.23)" fill="#fff"/>
    <path id="Path_708" data-name="Path 708" d="M250.332,958.829c-.618-.107-.914.108-.9.766a3.643,3.643,0,0,0-4.907.067,5.288,5.288,0,0,0-.242,6.144c.995,1.331,3.092,1.492,5.041.39a3,3,0,0,1-.161,1.425,2.25,2.25,0,0,1-3.778.524,1.031,1.031,0,0,0-1.425-.323c-.511.376.04.887.269,1.25.6.941,2.863,1.371,4.329.887s2.232-1.653,2.258-3.562c.027-2.2.027-4.409.013-6.614C250.829,959.394,251,958.923,250.332,958.829Zm-1.559,5.942a1.9,1.9,0,0,1-1.99.887,2.042,2.042,0,0,1-1.667-1.68,2.313,2.313,0,0,1-.148-1.21,2.519,2.519,0,0,1,1.546-2.662,2.127,2.127,0,0,1,2.742,1.6A3.5,3.5,0,0,1,248.772,964.771Z" transform="translate(55.702 35.244)" fill="#fff"/>
    <path id="Path_709" data-name="Path 709" d="M256.066,964.365c-.35,0-.363.336-.5.538a2.067,2.067,0,0,1-2.312.807,2.034,2.034,0,0,1-1.654-1.573c-.188-.659.054-.726.578-.712.753.013,1.492,0,2.245,0v.013h2.326c.323,0,.565-.04.591-.457a4.107,4.107,0,0,0-1.533-3.683,3.591,3.591,0,0,0-3.7-.269c-1.492.592-2.353,2.554-2.124,4.544a3.59,3.59,0,0,0,2.958,3.469c1.667.336,3.509-.417,4.02-1.654.121-.282.363-.632.121-.9S256.415,964.365,256.066,964.365Zm-4.262-3.294a1.966,1.966,0,0,1,2.137-1.022,2.087,2.087,0,0,1,1.842,1.492c.134.39.027.551-.39.538-.578-.013-1.17,0-1.748,0-.417,0-.847.013-1.264,0C251.468,962.066,251.361,961.891,251.8,961.071Z" transform="translate(57.953 35.234)" fill="#fff"/>
    <path id="Path_710" data-name="Path 710" d="M272.013,959.382a4.06,4.06,0,0,0-3.872-.376,4.81,4.81,0,0,0-1.075,7.031c1.546,1.721,5.055,1.318,5.928-.686.121-.269.444-.619.148-.887s-.739-.148-1.116-.067c-.255.04-.269.336-.39.511a2.131,2.131,0,0,1-2.245.82,2.083,2.083,0,0,1-1.707-1.411c-.229-.551-.2-.955.578-.914.712.04,1.425.014,2.137.014v.013c.78,0,1.559,0,2.339-.013.269,0,.578.067.686-.35A4.8,4.8,0,0,0,272.013,959.382Zm-.659,2.689H269.7c-.511,0-1.035-.013-1.546,0-.6.027-.632-.282-.457-.726a2.287,2.287,0,0,1,2.138-1.385,2.324,2.324,0,0,1,1.936,1.533C271.986,961.9,271.784,962.084,271.354,962.07Z" transform="translate(63.475 35.243)" fill="#fff"/>
    <path id="Path_711" data-name="Path 711" d="M261.489,960.226a4.48,4.48,0,0,1,2.826-.795c1.5.113,2.263.819,2.379,2.623.109,1.679.017,3.372.034,5.057.005.61-.4.536-.793.555-.5.026-.7-.18-.7-.68.012-1.394,0-2.788,0-4.183-.007-1.476-.4-2.012-1.481-2.033a2.007,2.007,0,0,0-2.259,2.092c-.027,1.3-.016,2.594,0,3.892.007.53.009.94-.737.932-.687-.005-.682-.372-.7-.868-.112-3.177-.087-6.352,0-9.529.012-.515.124-.747.7-.762.643-.016.761.262.742.813C261.466,958.244,261.489,959.15,261.489,960.226Z" transform="translate(61.407 34.504)" fill="#fff"/>
    <path id="Path_712" data-name="Path 712" d="M240.994,958.7c-2.581-.054-4.06,1.425-4.114,4.073s1.371,4.262,3.778,4.3a3.726,3.726,0,0,0,4.046-4.033C244.745,960.34,243.387,958.741,240.994,958.7Zm-.43,7.031a2.107,2.107,0,0,1-1.936-1.64c-.645-1.976.255-4.288,2.46-4.06,1.3.135,2.03,1.183,2.043,3.011C243.131,964.763,242.083,965.852,240.564,965.731Z" transform="translate(53.452 35.252)" fill="#fff"/>
    <path id="Path_713" data-name="Path 713" d="M215.8,962.808c0-1.038-.011-2.076.005-3.114.005-.328-.164-.808.355-.87.4-.047.956-.281,1.14.367.148.519.367.191.54.062a3.765,3.765,0,0,1,3.171-.437,2,2,0,0,1,1.523,1.827,39.14,39.14,0,0,1,.167,5.727c.013.609-.39.545-.786.563-.473.022-.721-.116-.712-.651.024-1.363.012-2.726.007-4.089-.007-1.472-.362-2.063-1.276-2.151a2.034,2.034,0,0,0-2.5,1.828,23.019,23.019,0,0,0-.121,4.173c-.013.558-.054.906-.77.9-.737,0-.756-.387-.745-.929.022-1.07.007-2.14.007-3.21Z" transform="translate(46.188 35.241)" fill="#fff"/>
    <path id="Path_714" data-name="Path 714" d="M236.5,962.774c0,1.362-.02,2.724.009,4.085.011.56-.125.821-.753.817-.609-.005-.864-.157-.856-.819.03-2.659-.012-5.318.027-7.977.011-.74-.234-.984-.95-.925-.612.051-1.233-.005-1.847.013-.54.018-.926-.019-.917-.751.009-.7.384-.683.874-.68q3.6.014,7.2,0c.487,0,.893-.015.9.678,0,.71-.38.745-.933.765-.893.034-2.045-.418-2.609.2-.507.558-.121,1.678-.145,2.549-.02.68,0,1.362,0,2.044Z" transform="translate(51.499 34.508)" fill="#fff"/>
    <path id="Path_715" data-name="Path 715" d="M200.675,962.821c0-1.039-.009-2.078.005-3.116.005-.3-.156-.726.3-.808.364-.066.93-.229,1.089.125.312.7.579.247.855.069a3.436,3.436,0,0,1,3.783.313,2.165,2.165,0,0,1,.613,1.582c.013,1.721-.015,3.442.013,5.162.011.582-.164.8-.772.795s-.68-.3-.675-.788c.016-1.461-.024-2.923.016-4.382.023-.8-.161-1.464-.991-1.664a1.933,1.933,0,0,0-2.253.71,3.355,3.355,0,0,0-.557,1.926c0,1.168-.026,2.338.005,3.506.016.6-.288.68-.784.684-.523.005-.672-.219-.664-.7.02-1.136.007-2.273.007-3.409Z" transform="translate(40.979 35.241)" fill="#fff"/>
    <path id="Path_716" data-name="Path 716" d="M207.015,962.837c0-1.1-.007-2.2.005-3.306,0-.266-.128-.67.3-.7.36-.024.92-.155,1.054.237.235.678.469.277.737.106a3.38,3.38,0,0,1,3.946.243,2.187,2.187,0,0,1,.625,1.577q-.022,2.577,0,5.153c0,.488-.058.794-.668.791-.582,0-.7-.256-.7-.769q.036-2.089.008-4.179c-.016-1.332-.452-1.879-1.494-1.957a1.975,1.975,0,0,0-2.253,1.758,25.523,25.523,0,0,0-.125,4.263c-.009.571-.079.9-.781.89-.721-.009-.661-.438-.66-.9C207.016,964.976,207.015,963.906,207.015,962.837Z" transform="translate(43.164 35.239)" fill="#fff"/>
    <path id="Path_717" data-name="Path 717" d="M257.156,963.768c0-.616-.024-1.233.005-1.849.034-.737.052-1.4-1.019-1.243-.425.06-.4-.32-.407-.612s-.03-.652.4-.624c1.182.079,1.054-.711,1.023-1.463-.02-.493-.086-.995.692-.979.559.012.87.148.8.772-.032.288.019.585-.008.874-.051.542.157.782.715.723.508-.054.871.031.863.706-.007.652-.384.667-.827.618-.621-.068-.772.218-.757.789q.048,1.946,0,3.893c-.013.59.192.854.784.785s.809.18.8.776-.39.555-.788.566c-1.961.058-2.277-.241-2.277-2.175Z" transform="translate(59.943 34.667)" fill="#fff"/>
    <path id="Path_718" data-name="Path 718" d="M273.8,960.011c.784-.651,1.287-1.3,2.136-1.318.343-.007.761-.09.764.473,0,.445.11.906-.512,1.092-1.881.558-2.33,1.151-2.374,3.081-.019.874,0,1.75,0,2.625,0,.476.113.967-.682.979-.848.015-.738-.51-.738-1.024,0-2.01-.013-4.02.011-6.029.005-.417-.28-1.038.538-1.106C273.679,958.723,273.941,959.082,273.8,960.011Z" transform="translate(65.669 35.247)" fill="#fff"/>
    <path id="Path_719" data-name="Path 719" d="M198.217,962.791c0-1.066.017-2.132-.007-3.2-.012-.531.079-.856.725-.852.583,0,.793.195.788.791-.024,2.2-.017,4.393,0,6.59.005.575-.195.79-.789.8-.648.01-.741-.3-.729-.833C198.234,964.989,198.215,963.889,198.217,962.791Z" transform="translate(40.135 35.266)" fill="#fff"/>
    <path id="Path_720" data-name="Path 720" d="M214.835,962.827c0,1.136-.019,2.272.008,3.408.011.509-.181.676-.682.68-.523.005-.764-.126-.757-.706q.038-3.358,0-6.718c-.005-.559.223-.726.749-.745.593-.022.7.258.688.769-.026,1.1-.008,2.207-.008,3.311Z" transform="translate(45.369 35.268)" fill="#fff"/>
    <path id="Path_721" data-name="Path 721" d="M186.515,964.363c.153.726-.152.946-.876.942-.7,0-.956-.169-.941-.917.013-.7.181-.961.92-.948C186.308,963.453,186.679,963.6,186.515,964.363Z" transform="translate(35.483 36.885)" fill="#fff"/>
    <path id="Path_722" data-name="Path 722" d="M277.211,964.358c.147.711-.122.964-.864.951-.684-.012-.971-.164-.959-.914.011-.7.182-.963.922-.949C277,963.459,277.376,963.593,277.211,964.358Z" transform="translate(66.711 36.886)" fill="#fff"/>
    <path id="Path_723" data-name="Path 723" d="M199.721,957.372c.062.561-.034.921-.738.932-.684.009-.807-.292-.784-.873.02-.512-.024-.934.729-.914C199.578,956.536,199.807,956.773,199.721,957.372Z" transform="translate(40.132 34.501)" fill="#fff"/>
    <path id="Path_724" data-name="Path 724" d="M213.428,957.434c-.108-.636.059-.919.743-.916s.69.366.687.858c0,.508.034.945-.719.934C213.433,958.3,213.323,957.956,213.428,957.434Z" transform="translate(45.365 34.501)" fill="#fff"/>
  </g>
</svg>
