<svg id="Group_7" data-name="Group 7" xmlns="http://www.w3.org/2000/svg" width="503.831" height="26.818" viewBox="0 0 503.831 26.818">
  <path id="Path_81" data-name="Path 81" d="M163.475-54.211c-5.932,2.04-8.442-.747-9.946-5.4a73.081,73.081,0,0,0-3.105-6.988c-1.877,3.885-3.579,7.216-5.1,10.628-.732,1.651-1.693,2.08-3.561,2.351-5.193.756-7.91-1.236-9.279-6.113-.854-3.042-2.562-5.841-3.668-8.827s-2.864-4.963-6.217-4.937c-.8-4.237-.711-4.365,3.155-4.368,5.328-.007,10.654,0,16.093,0v4.135c-4.033.93-4.444,1.788-2.684,5.532.7,1.5,1.452,2.986,2.392,4.915,2.238-4.522,4.394-8.461,6.152-12.566,1.262-2.944,3.648-2.053,5.63-1.893a4.342,4.342,0,0,1,2.836,2.26c1.8,3.746,3.318,7.627,5.3,12.314a76.377,76.377,0,0,0,2.983-7.129c.828-2.74-1.478-2.955-3.438-3.338v-4.035h14.8v4.113c-3.881-.059-5.341,2.749-6.619,5.941C167.358-62.994,165.3-58.453,163.475-54.211Z" transform="translate(222.649 79.053)" fill="#fff"/>
  <path id="Path_82" data-name="Path 82" d="M200.814-77.757v3.827c-4.444,1.421-4.463,1.445-4.463,6.3,0,4.565,0,9.133,0,13.592a9.036,9.036,0,0,1-8.327-2.125c-5.328-4.339-10.9-8.388-16.488-12.644-1.515,7.875-.778,9.826,4.152,11.026v3.831H161.44v-3.607c4.45-1.706,4.45-1.706,4.452-6.669,0-1.3,0-2.595,0-3.894-.006-4.385-.3-4.77-4.439-5.665v-4.124c3.948,0,7.757-.076,11.56.063.778.028,1.571.8,2.284,1.334,5.08,3.766,10.139,7.558,15.239,11.367,1.528-5.852.354-8.483-3.935-8.47v-4.144Z" transform="translate(268.675 79.133)" fill="#fff"/>
  <path id="Path_83" data-name="Path 83" d="M56.9-68.812c-.954,8.892-.456,10.5,4.189,11.006v4.022H46.909v-3.7c4.446-1.777,4.446-1.777,4.444-6.845,0-1.4.007-2.794,0-4.192-.015-3.872-.541-4.474-4.337-4.974-.843-4.259-.743-4.02,3.6-4.424a18.128,18.128,0,0,1,14.8,4.893c3.24,2.955,7.019,5.33,10.6,7.992,1.423-5.417.7-8.272-3.937-8.488v-4.163H86.215v3.9c-4.359,1.362-4.509,1.571-4.509,6.469,0,4.463,0,8.924,0,13.279-3.455,1.013-5.871-.113-8.285-2.06C68.125-60.363,62.647-64.409,56.9-68.812Z" transform="translate(133.973 79.023)" fill="#fff"/>
  <path id="Path_84" data-name="Path 84" d="M-6.089-64.368c-.626-.469-1.33-.834-2.4-1.512,3.468-1.408,5.163-3.575,4.511-6.938-.626-3.312-3.338-4.355-6.232-4.668-3.314-.339-6.651-.391-9.963-.417-5.426-.078-10.85-.026-16.275-.026v4.381c3.859.469,4.589,1.278,4.615,4.98v4.2c0,5.189,0,5.189-4.668,6.727v3.653c8.79,0,17.423.026,26.08-.026a9.418,9.418,0,0,0,3.209-.834A5.448,5.448,0,0,0-6.089-64.368Zm-8.946,6.232a61.388,61.388,0,0,1-8.242.13v-5.319a65.042,65.042,0,0,1,8.164.13c.965.1,2.529,1.617,2.425,2.321A3.758,3.758,0,0,1-15.036-58.136ZM-15.3-68.282a53.911,53.911,0,0,1-8.033.13v-5.372a60.128,60.128,0,0,1,8.138.13c.991.13,1.8,1.669,2.712,2.555C-13.419-69.925-14.253-68.438-15.3-68.282Z" transform="translate(36.5 79.111)" fill="#fff"/>
  <path id="Path_85" data-name="Path 85" d="M7.055-68.84c-1.551,7.638-.674,9.9,4.2,11.128v3.829h-14.2v-3.8c4.4-1.289,4.574-1.523,4.578-6.163,0-1.495.015-2.992,0-4.489-.046-3.87-.763-4.707-4.65-5.309v-4.1c5.715.139,11.441-1.632,16.5,3.081,3.859,3.6,8.451,6.425,12.729,9.6,1.53-5.611.541-7.84-3.924-8.5v-4.1H36.551c0,1.425,0,2.605,0,3.785-4.672,1.393-4.672,1.393-4.672,6.6,0,4.376,0,8.755,0,13.253-2.933.541-5.289.322-7.655-1.608C18.72-60.117,12.972-64.318,7.055-68.84Z" transform="translate(75.765 79.095)" fill="#fff"/>
  <path id="Path_86" data-name="Path 86" d="M62.357-54.062c-.463.043-.847.111-1.232.111-9.674,0-19.35,0-29.239,0v-3.9c4.455-1.3,4.574-1.465,4.578-6.143,0-1.5.007-2.994,0-4.494-.013-3.913-.6-4.622-4.6-5.38v-3.963H62.433v9.694H58.755C57.683-72.39,57.2-72.764,52.8-72.771c-2.6,0-5.2,0-7.944,0V-68.2c2.319.387,4.083.241,5.524-1.971.578-.889,2.453-.952,4.139-1.53v10.828c-2.014.55-3.594.724-4.987-1.571-.643-1.058-2.751-1.245-4.641-2.008v5.289c3.555,0,7.19.328,10.7-.169,1.334-.189,2.392-2.284,3.575-3.512l-.589-.828h3.777Z" transform="translate(116.686 79.253)" fill="#fff"/>
  <path id="Path_87" data-name="Path 87" d="M40.388-77.646c-7.851-.417-15.726-.183-23.6-.235-.261,0-.522.261-.73.365v3.807c3.937.678,4.511,1.33,4.537,5.085v4.774c0,4.746-.026,4.746-4.641,6.128v3.861c7.955,0,15.621.052,23.264-.026,6.678-.052,11.11-4.487,11.528-11.371C51.159-71.8,46.909-77.281,40.388-77.646Zm.209,16.2c-2.79,3.94-6.912,3.364-11.189,3.077V-73.291c4.25-.209,8.4-.913,11.162,3.1A7.567,7.567,0,0,1,40.6-61.451Z" transform="translate(98.023 79.165)" fill="#fff"/>
  <path id="Path_88" data-name="Path 88" d="M90.67-76.348,96.577-77.9v9.378c-2.342.7-3.99.6-5.521-1.854A8.77,8.77,0,0,0,80.136-73.6,9.182,9.182,0,0,0,74.6-64.216a9.159,9.159,0,0,0,7.977,8.144,2.979,2.979,0,0,0,1.775-.041c1.33-.811,2.545-1.808,3.8-2.731-1.23-.8-2.453-1.614-3.7-2.4a3.613,3.613,0,0,0-.821-.276v-3.777h18v3.911c-5.91.05-4.122,4.637-4.646,8.4l-8.142-.867c-7.668,3.716-15.419,2.736-20.563-3.316a12.231,12.231,0,0,1-.463-15.476C72.544-78.994,80.371-80.061,90.67-76.348Z" transform="translate(155.893 78.482)" fill="#fff"/>
  <path id="Path_89" data-name="Path 89" d="M103.755-73.739v-4.174c6.1,0,12.125-.126,18.125.163.728.035,1.343,2.312,2.088,3.7-5.432,1.4-6.621,4.307-5.345,11.152.532,2.849,3.464,4.4,7.729,4.107,4.157-.291,6.126-2.229,6.241-6.145.2-7.045-.35-8.116-4.648-8.642v-4.172h14.161v3.844c-4.548,1.447-4.561,1.462-4.561,6.458v1.5c-.009,7.8-3.22,11.48-11.028,12.056a38.743,38.743,0,0,1-9.318-.539c-5.784-.993-8.64-4.609-8.724-10.428-.015-1.1,0-2.195-.007-3.292C108.455-72.227,107.868-72.941,103.755-73.739Z" transform="translate(201.013 79.118)" fill="#fff"/>
  <path id="Path_90" data-name="Path 90" d="M10.28-62.185C7.542-66.826,4.8-71.5,2.012-76.085c-1.617-2.662-7.3-2.558-8.892.1-2.636,4.459-5.3,8.946-7.877,13.431-1.434,2.477-2.92,4.8-6.1,4.8v3.966H-6.724v-4.1a4.674,4.674,0,0,1-1.436-.183c-.913-.574-1.747-1.226-2.608-1.851.887-.521,1.747-1.408,2.686-1.512a33.353,33.353,0,0,1,6.651,0c1.278.13,3.494.756,3.572,1.33C2.4-57.726.265-58.143-1.274-57.96c-.183.026-.339.209-.522.339v3.835h17.97v-3.887C12.653-58.482,12.314-58.769,10.28-62.185Zm-18-3.468c1.123-1.956,2.14-3.7,3.5-6.026,1.278,2.19,2.295,3.913,3.52,6.026Z" transform="translate(54.844 79.013)" fill="#fff"/>
  <path id="Path_91" data-name="Path 91" d="M214.668-57.148c-1.593-1.462-3.548-2.662-4.7-4.409-2.973-4.485-5.58-9.233-8.32-13.848-2.06-3.47-7.51-3.546-9.546-.13-2.608,4.381-5.267,8.737-7.744,13.17-1.382,2.451-2.871,4.563-6.078,4.537v4.018h14.292V-57.8c-.7-.1-1.2-.026-1.46-.235-.887-.678-1.721-1.46-2.555-2.19a8.361,8.361,0,0,1,2.634-1.173,61.082,61.082,0,0,1,7.877,0c.834.052,1.591.939,2.4,1.434a18.782,18.782,0,0,1-2.19,1.9,5.013,5.013,0,0,1-1.8.313v3.94H215.4v-3.913C215.163-57.542,214.9-57.357,214.668-57.148Zm-23.214-8.346c1.176-2.086,2.193-3.913,3.5-6.182,1.252,2.112,2.347,3.914,3.7,6.182Z" transform="translate(288.433 78.985)" fill="#fff"/>
  <path id="Path_92" data-name="Path 92" d="M179.755-57.249c-1.591-1.436-3.572-2.636-4.694-4.383-2.947-4.511-5.53-9.259-8.216-13.926-1.851-3.209-7.564-3.34-9.468-.156-2.712,4.537-5.215,9.207-8.135,13.614-1.306,1.956-3.444,3.416-5.191,5.113-.235-.209-.5-.391-.73-.576.052,1.254.1,2.505.183,3.783h14.161v-4.1c-.652-.078-1.121,0-1.408-.183-.887-.574-1.669-1.252-2.5-1.877.913-.521,1.773-1.356,2.738-1.486a24.843,24.843,0,0,1,5.739-.026,30.5,30.5,0,0,1,4.459,1.2c-1.147,1.043-2.321,2.06-3.937,3.47v3h17.838V-57.64C180.329-57.509,180.042-57.379,179.755-57.249ZM156.648-65.6c1.226-2.112,2.242-3.887,3.5-6.078,1.278,2.086,2.373,3.887,3.677,6.078Z" transform="translate(247.423 79.007)" fill="#fff"/>
  <path id="Path_93" data-name="Path 93" d="M98.043-57.721c2.369,1.136,3.435.287,3.5-1.771.1-3.585.128-7.179-.011-10.765-.085-2.216-1.15-2.936-4.531-3.566-.035-.639-.093-1.317-.1-1.995-.007-.591.046-1.182.083-2.01h19.25l.174,3.718c-4.613,1.571-4.6,1.571-4.62,6.538-.006,2.19-.052,4.383-.115,6.573a7.161,7.161,0,0,1-.259,1.469c-.978,4.044-5.422,6.047-12.34,5.574-4.609-.315-7.634-2.492-7.631-6.06a6.388,6.388,0,0,1,2.064-4.4c.758-.632,2.981-.317,4.05.352,1.812,1.139,1.919,3.12,1.006,5.063C98.4-58.659,98.273-58.3,98.043-57.721Z" transform="translate(186.567 79.251)" fill="#fff"/>
  <path id="Path_94" data-name="Path 94" d="M85.09-70.265v-2.416c7.279-.7,7.579-.608,7.462,2.416Z" transform="translate(179.12 84.866)" fill="#fff"/>
</svg>
