<svg id="Group_2" data-name="Group 2" xmlns="http://www.w3.org/2000/svg" width="183.862" height="91.286" viewBox="0 0 183.862 91.286">
  <path id="Path_8" data-name="Path 8" d="M651.437-127.291H469.312a1.291,1.291,0,0,0-.7.065v.727a3.3,3.3,0,0,1,.065,1.13v.091a2.081,2.081,0,0,1-.065.935v2c.091.1.065.221.065.338a76.828,76.828,0,0,0,.623,8.285,93.025,93.025,0,0,0,3.909,16.155,91.719,91.719,0,0,0,6.221,14.181,93.3,93.3,0,0,0,14.376,19.727,88.053,88.053,0,0,0,9.727,8.8A91.536,91.536,0,0,0,525.7-41.995a92.192,92.192,0,0,0,19.013,5.441c1.61.286,3.234.273,4.831.532H571.1c1.325-.182,2.675-.13,3.987-.338a88.11,88.11,0,0,0,12.779-2.974,92.376,92.376,0,0,0,17.688-7.649,91.45,91.45,0,0,0,17.428-12.675,93.792,93.792,0,0,0,8.948-9.506,95.726,95.726,0,0,0,10.506-16.064,89.163,89.163,0,0,0,5.273-12.48,88.962,88.962,0,0,0,3.662-14.883,79.222,79.222,0,0,0,1.091-13.688C652.45-127.226,652.385-127.291,651.437-127.291ZM518.882-77.526c0,.493-.117.649-.636.623a13.593,13.593,0,0,1-10.714-5.831c-2.273-3.052-4.065-6.415-6.13-9.61-.416-.649-.805-1.3-1.247-2.026a1.39,1.39,0,0,0-.117.857q-.02,7.714,0,15.428c.013.584-.117.779-.74.779-2.415-.039-4.831-.026-7.247-.013-.455.013-.623-.078-.623-.571q.02-15.7,0-31.389c0-.493.182-.571.623-.571q3.662.039,7.324,0a1.035,1.035,0,0,1,1.013.571q4.636,7.558,9.3,15.078c.143.221.273.442.454.714a1.147,1.147,0,0,0,.117-.779c0-4.922.013-9.857-.013-14.792,0-.584.091-.818.766-.805,2.416.052,4.831.039,7.26.013.455,0,.61.091.61.584Q518.863-93.409,518.882-77.526Zm13.727-.4c0,.493-.117.649-.636.649-2.506-.026-5.026-.026-7.532,0-.558.013-.675-.156-.675-.688q.02-7.772.013-15.571c0-5.195.013-10.389-.013-15.571-.013-.61.156-.753.74-.74,2.493.039,4.987.026,7.481,0,.493,0,.623.13.623.636Q532.59-93.571,532.609-77.929Zm51.986,1.688a11.965,11.965,0,0,1-11.221,8.13c-4.532.052-9.065,0-13.584.026-.468,0-.61-.117-.61-.61.026-2.454.026-4.922,0-7.389-.013-.519.169-.623.649-.623,3.766.026,7.519.013,11.285.013a5.015,5.015,0,0,0,3.156-.987,3.182,3.182,0,0,0,.584-4.688,7.971,7.971,0,0,0-2.974-2.182c-1.13-.532-2.3-.948-3.415-1.493-2.519-1.221-5.078-2.377-6.9-4.7a11.864,11.864,0,0,1-.377,4.545,11.781,11.781,0,0,1-10.948,8.818c-4.714.13-9.441.039-14.156.065-.441.013-.506-.169-.494-.545.013-2.506.013-5.026-.013-7.532-.013-.545.247-.545.649-.545H547.44a5.185,5.185,0,0,0,2.935-.766,3.249,3.249,0,0,0,.7-5.117,8.785,8.785,0,0,0-3.376-2.234,51.3,51.3,0,0,1-6.195-2.987,11.807,11.807,0,0,1-5.727-12.6,11.882,11.882,0,0,1,10.26-9.363,10.863,10.863,0,0,1,1.3-.052c3.74,0,7.467.013,11.207-.013.545-.013.675.143.662.675q-.039,3.623,0,7.247c.013.532-.117.688-.675.675-2.961-.026-5.935,0-8.909-.013a4.228,4.228,0,0,0-2.208.481,3.493,3.493,0,0,0-1.909,3.364,3.431,3.431,0,0,0,2.182,3.117c1.234.558,2.532,1,3.766,1.571,2.844,1.338,5.61,2.779,7.727,5.389a30.477,30.477,0,0,1,.1-3.143,11.8,11.8,0,0,1,11.259-10.117c3.9-.065,7.8,0,11.714-.026.468,0,.546.156.546.571-.026,2.493-.026,4.987,0,7.467.013.519-.195.571-.623.571-3.091-.013-6.182,0-9.272,0a3.706,3.706,0,0,0-3.234,1.7,3.589,3.589,0,0,0,1.766,5.338c1.182.506,2.4.935,3.571,1.467a26.312,26.312,0,0,1,5.636,3.286A11.9,11.9,0,0,1,584.595-76.241Zm12.22-1.675c0,.506-.143.636-.636.636-2.545-.026-5.078-.026-7.623,0-.571.013-.649-.195-.636-.688.013-5.221,0-10.428,0-15.649,0-5.169.013-10.337-.013-15.493,0-.61.156-.753.753-.74,2.48.039,4.974.026,7.467,0,.494,0,.7.065.7.649Q596.789-93.558,596.815-77.916Zm32.337.377c0,.584-.195.662-.7.636A13.587,13.587,0,0,1,617.8-82.721c-2.091-2.779-3.727-5.844-5.584-8.766-.6-.935-1.182-1.883-1.766-2.818a.551.551,0,0,0-.143.026v.74c0,5.156-.013,10.3.013,15.441.013.649-.169.805-.792.792-2.377-.039-4.753-.026-7.117-.013-.532.013-.727-.091-.727-.688q.039-15.565,0-31.155c0-.61.195-.688.727-.688,2.415.026,4.844.026,7.26,0a.962.962,0,0,1,.961.532q4.656,7.578,9.35,15.129c.13.221.273.442.455.714a1.286,1.286,0,0,0,.1-.779c0-4.948.013-9.909-.013-14.857,0-.61.143-.753.74-.74,2.4.039,4.792.026,7.195,0,.493,0,.688.065.688.649Q629.133-93.383,629.152-77.539Z" transform="translate(-468.61 127.307)" fill="#fff"/>
  <path id="Path_9" data-name="Path 9" d="M468.61-126.688c.253.361.109.769.132,1.156-.049.088-.092.086-.132-.007Z" transform="translate(-468.61 127.493)" fill="#fff"/>
  <path id="Path_10" data-name="Path 10" d="M468.61-125.8l.132.007c-.04.334.146.7-.132,1Z" transform="translate(-468.61 127.757)" fill="#fff"/>
</svg>
