<svg id="Group_8" data-name="Group 8" xmlns="http://www.w3.org/2000/svg" width="269.552" height="100.823" viewBox="0 0 269.552 100.823">
  <path id="Path_95" data-name="Path 95" d="M538.286-188.137c2-.5,3.823-1.087,5.688-1.4,7.3-1.2,14.116.794,20.851,3.256a5.607,5.607,0,0,0,2.054.688,7.36,7.36,0,0,0,2.226-.95c.043-.021.048-.121.073-.182.641-1.5.938-3.891,2-4.3,1.845-.712,4.166-.2,6.515-.2.49,7.012-.281,13.467-5.771,18.353-3.913,3.483-8.65,3.643-13.366,2.129-3.143-1.008-6.078-2.651-9.132-3.954a87.093,87.093,0,0,0-9.393-3.8c-3.833-1.128-5.9.146-7.366,3.8-1.375,3.43-1.375,3.435-5.022,3.256-1.055-.052-2.107-.144-3.316-.228a25.277,25.277,0,0,1,1.811-11.752,27.846,27.846,0,0,1,9.477-11.855c3.813-2.894,7.894-5.435,11.691-8.346a45.054,45.054,0,0,0,7.5-6.791,14.421,14.421,0,0,0,3.034-6.755A9.936,9.936,0,0,0,547.1-228.293a7.633,7.633,0,0,0-3.8,1.489c-2.664,2.022-2.581,3.434.277,5.019,3.949,2.19,4.24,5.273,3.689,8.217-.562,3-3.7,5.28-7.258,5.578-8.249.69-13.308-5.768-11.068-14.1a16.415,16.415,0,0,1,7.515-9.951c10.266-6.3,21.073-7.184,32-2.027,9.289,4.385,12.98,14.3,9.352,23.68a17.492,17.492,0,0,1-7.73,8.824c-5.387,3.216-11.411,4.669-17.362,6.344-3.517.99-7.024,2.023-10.5,3.145A5.361,5.361,0,0,0,538.286-188.137Z" transform="translate(-444.081 270.651)" fill="#fff"/>
  <path id="Path_96" data-name="Path 96" d="M586.528-180.419c1.818,3.161,4.295,4.2,7.367,3.38a11.847,11.847,0,0,0,7.15-5.1c3.5-5.468,5.021-11.436,3.562-17.863-1.956-8.625-10.207-12.574-18.26-8.588a30.712,30.712,0,0,0-6.877,5.326c-2.521,2.344-7.132,1.452-8.136-1.893a14.873,14.873,0,0,1-.446-4.523c.157-8.1.393-16.2.606-24.3.007-.261.076-.522.156-1.046,4.143-.212,8.461-.915,12.39.555,10.686,4,21.356,3.713,32.161.872.893-.234,1.8-.4,3.054-.669a40.843,40.843,0,0,1-.75,4.022c-2.646,9.047-11.917,13.755-21.294,10.812-2.217-.7-4.376-1.576-6.578-2.322-.928-.315-1.9-.5-3.089-.815v7.716c3.551-.411,7.021-.944,10.511-1.188a25.779,25.779,0,0,1,19.115,5.975c6.77,5.744,8.418,15.9,4.187,24.88-4.276,9.078-11.815,13.606-21.563,14.561a32.4,32.4,0,0,1-18.577-3.488,23.463,23.463,0,0,1-5.754-4.2,11.231,11.231,0,0,1-1.041-14.6,12.405,12.405,0,0,1,14.4-3.68c3.263,1.46,4.965,4.368,3.922,7.745a22.341,22.341,0,0,1-3.334,5.951A14.613,14.613,0,0,1,586.528-180.419Z" transform="translate(-433.842 271.1)" fill="#fff"/>
  <path id="Path_97" data-name="Path 97" d="M619.468-210.314v-3.79h73.261v11.179H619.521v-3.71H677.16v-3.679Z" transform="translate(-423.178 275.769)" fill="#fff"/>
  <path id="Path_98" data-name="Path 98" d="M531.746-214.063v3.676h-2.471q-26.575,0-53.152-.016c-1.346,0-2.274.038-2.2,1.846.057,1.474.48,1.927,1.968,1.92,10.723-.056,21.447-.029,32.17-.029h23.674v3.748H458.508v-11.144Z" transform="translate(-458.508 275.778)" fill="#fff"/>
  <path id="Path_99" data-name="Path 99" d="M619.478-196.526v-3.79h59.166v11.135H619.532v-3.674h42.923v-3.671Z" transform="translate(-423.175 278.795)" fill="#fff"/>
  <path id="Path_100" data-name="Path 100" d="M470.1-189.182v-11.182h59.1v3.725H486.3v3.7h42.924v3.751Z" transform="translate(-455.964 278.785)" fill="#fff"/>
  <path id="Path_101" data-name="Path 101" d="M662.487-220.681v-3.7H619.5v-3.738H678.64V-217H619.509v-3.681Z" transform="translate(-423.171 272.693)" fill="#fff"/>
  <path id="Path_102" data-name="Path 102" d="M529.207-228.177v3.69H486.261v3.739h42.925v3.788H470.109v-11.217Z" transform="translate(-455.962 272.68)" fill="#fff"/>
  <path id="Path_103" data-name="Path 103" d="M632.115-243.76l2.339.64-.072.416h-8.907l-.115-.35,2-.7v-9.051H621v9.1l2.2.585-.089.435h-9.132l-.128-.383,2.256-.656v-19.147l-2.1-.457,0-.3h8.967l.066.245-2.034.5v8.683h6.323v-8.66l-1.839-.481.01-.3h8.773c-2.406.146-2.2,1.8-2.183,3.474.056,4.778.021,9.558.021,14.336Z" transform="translate(-424.41 264.896)" fill="#fff"/>
  <path id="Path_104" data-name="Path 104" d="M487.634-249.026a4.7,4.7,0,0,0-3.585-4.073c-.756-.244-1.537-.39-2.707-.7a34.122,34.122,0,0,0,3.219-1.232,4.289,4.289,0,0,0,1.012-7.024,6.326,6.326,0,0,0-3.524-1.61c-3.963-.2-7.951-.073-11.927-.061-.037,0-.061.219-.11.39q.933.256,1.829.512v19.134c-.719.207-1.329.39-1.951.585.049.256.085.512.122.768,4.451-.2,8.9-.354,13.353-.622a4.529,4.529,0,0,0,1.976-.9A5.193,5.193,0,0,0,487.634-249.026Zm-10.939-14.4c1.756.476,4.378.585,4.573,1.329a12.832,12.832,0,0,1-.012,6.89c-.524,1.6-2.817,1.171-4.561.927Zm5.183,18.878c-1.024,1.915-3.281.951-5.183,1.073v-9.878c1.976.159,4.183-.744,5.207,1.329A8.2,8.2,0,0,1,481.878-244.551Z" transform="translate(-456.01 264.868)" fill="#fff"/>
  <path id="Path_105" data-name="Path 105" d="M639.894-263.762c-4.683,1.537-7.939,7.585-6.878,12.78,1.049,5.11,4.781,8.817,9.049,9,5.61.232,10.219-4.561,10.378-10.793C652.638-260.189,646.187-265.835,639.894-263.762Zm6.866,16.646c-.171,2.9-1.475,4.28-3.9,4.378-2.573.11-4.085-1.11-4.219-4.171-.207-4.293-.134-8.61.073-12.9.11-2.427,1.475-3.488,3.719-3.6,2.329-.11,3.658.963,4.207,3.366a4.463,4.463,0,0,1,.122.793c.012,2.049.012,4.11.012,6.171h.012C646.784-251.091,646.882-249.091,646.76-247.116Z" transform="translate(-420.248 264.774)" fill="#fff"/>
  <path id="Path_106" data-name="Path 106" d="M534.2-263.486c-3.9-.341-7.829-.268-11.744-.354a4.27,4.27,0,0,0-1.012.207c2.744.037,2.232,1.988,2.244,3.585v16.341c-.988.256-1.671.439-2.341.622.037.122.073.244.122.366H530.8l.037-.439c-.781-.159-1.573-.317-2.378-.488v-9.1c1.085,0,2.061.049,3.037-.012a17.061,17.061,0,0,0,3.159-.378c3.1-.768,4.451-2.549,4.341-5.524C538.9-261.45,537.423-263.193,534.2-263.486Zm-.4,6.122c-.086,3.927-1.232,4.744-5.451,3.707,0-2.707-.049-5.476.049-8.232a1.7,1.7,0,0,1,1.134-1.146c3.207-.476,4.171.4,4.268,3.7Q533.819-258.352,533.8-257.364Z" transform="translate(-444.714 264.852)" fill="#fff"/>
  <path id="Path_107" data-name="Path 107" d="M582.959-263.425c-4.341-.354-8.732-.244-13.1-.3-.049,0-.1.22-.183.415.719.146,1.4.281,2.11.415v19.256c-.8.183-1.476.329-2.158.488.024.134.049.28.073.415h9.536l.036-.439c-.854-.158-1.707-.317-2.561-.463v-8.841a58.778,58.778,0,0,0,6.756-.829,4.887,4.887,0,0,0,3.89-5.3A4.58,4.58,0,0,0,582.959-263.425Zm-6.268,9.829v-9.463c1.049,0,2.012-.037,2.976.012a2.176,2.176,0,0,1,2.341,2.378c.024,1,.183,1.988.159,2.976C582.032-253.474,581.167-252.816,576.691-253.6Z" transform="translate(-434.117 264.876)" fill="#fff"/>
  <path id="Path_108" data-name="Path 108" d="M615.554-263.777v6.243c-1.382-2.65-2.066-5.921-6.3-5.44v19.3l2.138.544-.033.393h-9.167l-.109-.3,2.268-.735c0-1.552,0-3.194,0-4.835,0-4.251-.048-8.5.022-12.753.027-1.649-.779-2.161-2.061-1.515a8.733,8.733,0,0,0-2.9,2.452c-.649.849-.855,2.033-1.537,3.032v-6.389Z" transform="translate(-427.917 264.866)" fill="#fff"/>
  <path id="Path_109" data-name="Path 109" d="M562.227-246.219c-1.963-5.415-3.793-10.89-5.7-16.329a19.485,19.485,0,0,0-1.2-2.122c-.451,1.134-.707,1.72-.915,2.317-1.427,4.134-2.732,8.317-4.329,12.378-1.037,2.634-.7,6.1-4.793,7.488h6.2a1.345,1.345,0,0,0-1.11-.732c-1.28-.012-1.378-.719-1.159-1.732.732-3.268.927-3.427,4.329-3.427a11.976,11.976,0,0,1,1.988.037,1.537,1.537,0,0,1,1.049.671c.549,1.378.951,2.8,1.427,4.232-.927.207-1.573.341-2.207.488.025.159.049.317.073.463h8.366A25.665,25.665,0,0,1,562.227-246.219Zm-11.463-3.2c.866-2.463,1.671-4.756,2.463-7.049.146-.024.293-.049.427-.073.793,2.3,1.585,4.61,2.451,7.122Z" transform="translate(-439.457 264.67)" fill="#fff"/>
  <path id="Path_110" data-name="Path 110" d="M502.675-245.963c-2.012-5.61-3.89-11.268-5.853-16.89a5.691,5.691,0,0,0-.963-1.317,6.071,6.071,0,0,0-.951,1.329c-1.463,4.183-2.732,8.451-4.378,12.561-1.073,2.683-.719,6.219-4.158,7.744h5.4c-2.707-1.683-2.744-1.707-1.354-4.78a2.317,2.317,0,0,1,1.524-1.122,18.647,18.647,0,0,1,3.78-.012,1.662,1.662,0,0,1,1.232.7c.549,1.317.927,2.707,1.378,4.073-.817.3-1.451.537-2.073.768.036.1.073.183.11.268h8.268A21.2,21.2,0,0,1,502.675-245.963ZM491.1-249.524c.89-2.512,1.671-4.744,2.463-6.975l.512-.073c.768,2.293,1.524,4.573,2.354,7.049Z" transform="translate(-452.392 264.78)" fill="#fff"/>
  <path id="Path_111" data-name="Path 111" d="M599.237-246.475c-1.963-5.427-3.781-10.9-5.7-16.353a6.574,6.574,0,0,0-.951-1.341,5.385,5.385,0,0,0-.963,1.3c-1.829,5.2-3.6,10.414-5.39,15.61-.622,1.8-.8,3.939-3.207,4.658h5.719c-2.8-1.683-2.756-1.671-1.829-4.4a1.838,1.838,0,0,1,2.159-1.512c1.049.1,2.134-.061,3.183.061a1.957,1.957,0,0,1,1.415.732c.561,1.3.927,2.707,1.366,4.073-.829.268-1.463.463-2.085.659.025.122.049.256.073.39h8.317A28.308,28.308,0,0,1,599.237-246.475Zm-11.39-3.073c.841-2.415,1.646-4.707,2.439-7,.171,0,.329.012.5.012.768,2.268,1.524,4.524,2.366,6.988Z" transform="translate(-431.176 264.78)" fill="#fff"/>
  <path id="Path_112" data-name="Path 112" d="M537.245-263.7h9.7c-2.752,1.006-2.752,1.006-2.752,3.738v16.232l2.365.6-.063.42h-9.273l-.133-.361,2.376-.668V-256.2c0-1.2.038-2.391-.01-3.585C539.391-261.415,540.322-263.664,537.245-263.7Z" transform="translate(-441.26 264.884)" fill="#fff"/>
  <path id="Path_113" data-name="Path 113" d="M510.179-243.7l2.117.6-.074.412h-9.108l-.124-.432,2.238-.594c.034-.618.1-1.318.106-2.018.01-4.849-.038-9.7.029-14.544.023-1.679.16-3.247-2.215-3.4h8.919l.093.274-1.98.515Z" transform="translate(-448.745 264.889)" fill="#fff"/>
  <path id="Path_114" data-name="Path 114" d="M651.269-242.718c2.9-.37,2.19-2.534,2.2-4.256.021-4.515-.043-9.03.034-13.544.028-1.628-.005-2.98-2.17-3.111h8.883l.061.268-1.934.416v19.24l2.061.555-.066.432Z" transform="translate(-416.197 264.898)" fill="#fff"/>
  <path id="Path_115" data-name="Path 115" d="M670.992-242.7H661.1l-.14-.382,2.078-.666c-1.462-2.463-2.888-4.874-4.322-7.28-1.725-2.9-1.721-2.889.465-5.367,1.782-2.018,3.544-4.056,5.513-6.313l-2.379-.65.012-.29h6.357c-3.689.488-5.026,3.779-7.184,6.032a2.167,2.167,0,0,0-.116,2.009c2.1,3.685,4.246,7.355,6.572,10.9C668.522-243.843,669.811-243.452,670.992-242.7Z" transform="translate(-414.835 264.894)" fill="#fff"/>
  <path id="Path_116" data-name="Path 116" d="M522.99-242.675H512.882l-.106-.427,2.083-.67c-1.633-2.752-3.145-5.521-4.88-8.143a2.582,2.582,0,0,1,.4-3.8c1.634-1.649,3.113-3.45,4.64-5.2.454-.522.841-1.1,1.4-1.84l-2.309-.617.017-.287h6.383c-3.7.522-5.029,3.844-7.217,6.08a1.974,1.974,0,0,0-.14,1.844c2.178,3.8,4.393,7.576,6.775,11.245C520.426-243.718,521.665-243.429,522.99-242.675Z" transform="translate(-447.354 264.893)" fill="#fff"/>
</svg>
