<svg id="Group_5" data-name="Group 5" xmlns="http://www.w3.org/2000/svg" width="243.255" height="61.533" viewBox="0 0 243.255 61.533">
  <path id="Path_33" data-name="Path 33" d="M395.436-106.953c.811.254,1.64.465,2.43.774a11.51,11.51,0,0,1,4.463,3.221l-6.656,5.881c-1.1-1.006-2.174-1.991-3.258-2.96a2.392,2.392,0,0,0-2.871-.593A2.621,2.621,0,0,0,388.1-97.87a2.37,2.37,0,0,0,1.874,2.258,12.059,12.059,0,0,0,2.9.445c1.9.068,3.814.02,5.9.02-.259,1.034-.456,1.976-.752,2.885-.057.173-.5.3-.774.31-1.464.029-2.93.014-4.4.014h-1.068c-.4,2.1-.751,4.124-1.171,6.135-1.584,7.568-2.95,15.2-5.745,22.452a33.315,33.315,0,0,1-7.934,12.432,18.758,18.758,0,0,1-13.42,5.5c-4.424-.025-8.1-1.606-10.516-5.448-2.873-4.566-.925-10.088,4.326-12.153a13.616,13.616,0,0,1,4.441-.932c3.88-.131,7.77-.051,11.655-.052.156,0,.311.023.67.052-.257.929-.461,1.806-.771,2.643-.062.163-.544.236-.832.237-3.535.017-7.071,0-10.606.015a6.582,6.582,0,0,0-6.5,5.133,4.554,4.554,0,0,0,.811,3.79,8.064,8.064,0,0,0,6.229,3.56c5.137.481,8.732-1.735,11.258-6.084A37.9,37.9,0,0,0,377.5-65.468c1.842-8.038,3.3-16.149,4.427-24.318.086-.618.174-1.236.276-1.957h-5.23c.267-1.057.471-2,.761-2.91.062-.191.425-.351.675-.405a8.357,8.357,0,0,0,5.021-3.369c1.375-1.825,2.89-3.549,4.409-5.258a8.853,8.853,0,0,1,5.54-3.1,1.24,1.24,0,0,0,.336-.166Z" transform="translate(-253.063 106.953)" fill="#fff"/>
  <path id="Path_34" data-name="Path 34" d="M287.686-65.015c3.688.447,6.218-1.405,6.935-5.058q2.718-13.856,5.448-27.709a3.3,3.3,0,0,0-2.943-4.258c-.655-.111-1.319-.162-2.08-.251.319-.855.59-1.7.96-2.492a.977.977,0,0,1,.76-.374q10.125-.03,20.251.009a1.032,1.032,0,0,1,.758.59,19.874,19.874,0,0,1,.427,2.253c-.954.085-1.872.112-2.771.256a4.169,4.169,0,0,0-3.826,3.665c-1.311,6.719-2.591,13.443-3.888,20.165-.552,2.862-1.094,5.725-1.689,8.579-.555,2.666.569,4.3,3.3,4.691.469.068.939.129,1.555.216a20.135,20.135,0,0,1-.851,2.315c-.113.225-.624.35-.954.351-4.713.023-9.425.015-14.139.015-1.879,0-3.759-.049-5.634.023-.851.032-1.1-.322-1.2-1.062a16.3,16.3,0,0,0-.415-1.734Z" transform="translate(-287.686 107.916)" fill="#fff"/>
  <path id="Path_35" data-name="Path 35" d="M441.422-102.279c.045-.173.088-.29.1-.41a2.075,2.075,0,0,1,2.17-2.039c4.363-.421,8.706-1.045,13.058-1.589.182-.022.368-.017.652-.029-.43,2.184-.84,4.287-1.256,6.391q-2.522,12.728-5.036,25.457c-.4,2.03.809,3.293,3.241,3.467.533.037,1.071,0,1.6,0,.145,1.846-.032,2.031-1.64,2.233-4.226.529-8.445,1.1-12.668,1.644-.465.06-.937.085-1.526.137.825-4.233,1.632-8.36,2.433-12.487s1.6-8.268,2.412-12.472a6.2,6.2,0,0,0-4.942,1.1,12.363,12.363,0,0,0-4.38,6.207,26.076,26.076,0,0,0-1.837,8.128,12.921,12.921,0,0,0,.381,3.665,4.8,4.8,0,0,0,4.335,3.609,11.5,11.5,0,0,1-.279,1.715.941.941,0,0,1-.666.51c-3.38.408-6.762.533-9.877-1.13a7.737,7.737,0,0,1-4.044-6.531,19.448,19.448,0,0,1,15.274-20.324,24.808,24.808,0,0,1,3.3-.472c1.073-.079,2.156-.017,3.41-.017.253-1.481.6-2.893.7-4.32a2.211,2.211,0,0,0-2-2.121C443.42-102.143,442.461-102.168,441.422-102.279Z" transform="translate(-214.152 107.281)" fill="#fff"/>
  <path id="Path_36" data-name="Path 36" d="M343.324-102.276c.19-.6.342-1.207.584-1.78a.915.915,0,0,1,.595-.482c4.79-.618,9.584-1.208,14.377-1.8a2.9,2.9,0,0,1,.45.031c-.493,2.5-.977,4.945-1.461,7.393q-2.42,12.215-4.836,24.429a2.54,2.54,0,0,0,2.138,3.244,25.723,25.723,0,0,0,2.722.331c.1,1.8-.006,1.9-1.775,2.122-4.54.564-9.077,1.156-13.616,1.735-.094.011-.189,0-.455,0l4.85-24.926a6.24,6.24,0,0,0-4.875,1.057,11.993,11.993,0,0,0-4.31,5.912,26.632,26.632,0,0,0-2,8.673,12.022,12.022,0,0,0,.391,3.475c.553,2.122,2.116,3.23,4.33,3.614-.089.613-.143,1.173-.267,1.717a.645.645,0,0,1-.407.425c-3.93.516-7.87.772-11.231-1.842-2.39-1.859-3.1-4.566-3.044-7.484A19.449,19.449,0,0,1,340.883-95a43.1,43.1,0,0,1,5.962-.567c.559-.035.8-.168.875-.712.123-.846.29-1.686.455-2.526a2.407,2.407,0,0,0-2.022-3.165A26.089,26.089,0,0,0,343.324-102.276Z" transform="translate(-267.233 107.283)" fill="#fff"/>
  <path id="Path_37" data-name="Path 37" d="M304.077-70.99c.929-4.74,1.848-9.433,2.771-14.126.387-1.96.8-3.914,1.16-5.878a7.268,7.268,0,0,0,.076-1.708,2.553,2.553,0,0,0-2.464-2.557c-.281-.032-.564-.034-.837-.049-.267-1.6.034-2.025,1.589-2.235q6.14-.835,12.284-1.644a6.082,6.082,0,0,1,.663,0l-.65,3.583c1.4-.841,2.617-1.644,3.9-2.325a13.275,13.275,0,0,1,7.422-1.712c3.246.27,4.91,2,5.183,5.24a27.921,27.921,0,0,1-.829,7.445c-.575,3.118-1.213,6.221-1.819,9.331a2.308,2.308,0,0,0,2.309,2.993c.464.039.932.006,1.365.006a1.072,1.072,0,0,1,.054.219c-.247,1.78-.239,1.84-2.037,2.079-4.182.555-8.373,1.046-12.7,1.581.481-2.39.946-4.646,1.387-6.906.766-3.917,1.593-7.827,2.245-11.765a3.513,3.513,0,0,0-3-4.327,4.121,4.121,0,0,0-4.508,3.261c-.869,4.286-1.7,8.579-2.544,12.871-.4,2.02-.767,4.048-1.205,6.061-.06.28-.438.7-.673.7-2.959.035-5.919.006-8.88-.011C304.277-70.862,304.222-70.916,304.077-70.99Z" transform="translate(-278.817 110.887)" fill="#fff"/>
  <path id="Path_38" data-name="Path 38" d="M424.356-99.129c-6.319-2.188-13.839-.015-18.57,5.44-3.329,3.837-4.932,8.291-3.93,13.377,1.294,6.6,6.765,10.772,13.793,10.834.909-.108,1.834-.154,2.743-.293a17.836,17.836,0,0,0,14.841-15.488A13.065,13.065,0,0,0,424.356-99.129Zm-3.745,21.683a11.619,11.619,0,0,1-2.6,3.683c-2.05,1.9-4.438,1.2-5.455-1.4a13.628,13.628,0,0,1-.555-6.58,32.789,32.789,0,0,1,2.7-10.741,13.36,13.36,0,0,1,2.389-3.39,3.19,3.19,0,0,1,5.3,1.187,29.474,29.474,0,0,1,.848,3.868C422.953-85.721,422.414-81.437,420.611-77.445Z" transform="translate(-226.07 110.731)" fill="#fff"/>
  <path id="Path_39" data-name="Path 39" d="M410.795-88.67c-1.032-6.8-6.812-11.512-14.332-11.281a17.353,17.353,0,0,0-12.637,5.825c-3.683,3.991-5.409,8.676-4.284,14.086,1.341,6.38,6.8,10.464,15.1,10.495,5.933-.354,11.4-3.729,14.779-10.341A14.313,14.313,0,0,0,410.795-88.67ZM398.543-78.083a16.225,16.225,0,0,1-1.8,3.236,5.689,5.689,0,0,1-1.757,1.556,2.979,2.979,0,0,1-4.546-1.341,10.339,10.339,0,0,1-.925-5.394,34.182,34.182,0,0,1,2.7-12.19,12.816,12.816,0,0,1,2.5-3.652,3.2,3.2,0,0,1,5.348,1.233,29.9,29.9,0,0,1,.848,3.868C400.608-85.974,400.069-81.92,398.543-78.083Z" transform="translate(-238.168 110.737)" fill="#fff"/>
  <path id="Path_40" data-name="Path 40" d="M378.341-88.3c-.971-7.336-7.089-11.913-14.486-11.651a17.349,17.349,0,0,0-12.467,5.764c-3.76,4.022-5.486,8.769-4.33,14.24,1.356,6.349,6.842,10.4,15.1,10.387,5.3-.262,10.449-3.221,13.978-8.892A14.7,14.7,0,0,0,378.341-88.3Zm-12.5,10.711a8.812,8.812,0,0,1-2.759,3.93c-2.158,1.649-4.423,1.094-5.348-1.464a23.07,23.07,0,0,1-.817-3.791c.324-5.209,1.079-9.632,3.005-13.762a11.043,11.043,0,0,1,2.312-3.221,3.186,3.186,0,0,1,5.286,1.217,11.679,11.679,0,0,1,.755,3.9A35.192,35.192,0,0,1,365.842-77.589Z" transform="translate(-255.753 110.736)" fill="#fff"/>
  <path id="Path_41" data-name="Path 41" d="M374.706-76.179l1-2.882H482.166l-.641,2.882Z" transform="translate(-240.601 122.045)" fill="#fff"/>
  <path id="Path_42" data-name="Path 42" d="M378.481-79.087c-.778.871-1.578,1.783-2.4,2.674a1.1,1.1,0,0,1-.547.277,3.193,3.193,0,0,1-.666.012H304.435c-.052-.146-.077-.179-.072-.2.612-2.759.612-2.759,3.446-2.759h70.673Z" transform="translate(-278.663 122.031)" fill="#fff"/>
</svg>
