<svg id="Group_6" data-name="Group 6" xmlns="http://www.w3.org/2000/svg" width="303.503" height="63.654" viewBox="0 0 303.503 63.654">
  <path id="Path_43" data-name="Path 43" d="M.806-122.263c.233,4.807.041,9.641.041,14.448,0,1.6,0,1.6-1.534,1.6h-27.1c-.438,0-.863.027-1.3.041a2.727,2.727,0,0,1,1.931-.342q12.674-.021,25.322-.014c.356,0,.712-.014,1.068,0,.89.055,1.3-.288,1.3-1.219C.5-112.923.9-118.127.422-123.263c-.753-8.135-4.875-14.133-12.736-17.2a37.4,37.4,0,0,0-15.078-2.807,2.314,2.314,0,0,1-1.7-.342A38.238,38.238,0,0,1-11.068-140.3C-3.316-136.793.408-130.521.806-122.263Z" transform="translate(29.09 169.223)" fill="#fff"/>
  <path id="Path_44" data-name="Path 44" d="M-.457-140.84a13.078,13.078,0,0,1-8.463,0Z" transform="translate(36.542 170.27)" fill="#fff"/>
  <path id="Path_45" data-name="Path 45" d="M5.112-159.564H-12.13a14.034,14.034,0,0,1,5.779-2.506c.247-.055.575.082.726-.26-.055.63-.6.561-.986.644a16.863,16.863,0,0,0-4.7,1.876c5.053-.014,10.12.014,15.215-.082a11.976,11.976,0,0,0-3.944-1.684c-.493-.11-1.164,0-1.315-.753,1.287.548,2.725.657,3.985,1.315A13.979,13.979,0,0,1,5.112-159.564Z" transform="translate(35.356 162.33)" fill="#fff"/>
  <path id="Path_46" data-name="Path 46" d="M-12.81-142.85H6.226a1.98,1.98,0,0,1-1.821.9q-7.7-.041-15.42,0A2.088,2.088,0,0,1-12.81-142.85Z" transform="translate(35.105 169.527)" fill="#fff"/>
  <path id="Path_47" data-name="Path 47" d="M9.241-157.364h-23.8c.986-1.342,1.808-2.4,3.684-2.356,5.4.123,10.778.041,16.173.041C7.53-159.679,7.831-159.5,9.241-157.364Z" transform="translate(34.458 163.294)" fill="#fff"/>
  <path id="Path_48" data-name="Path 48" d="M8.044-143.828q-10.559-.041-21.131,0a1.48,1.48,0,0,1-1.643-1.082H9.537A1.291,1.291,0,0,1,8.044-143.828Z" transform="translate(34.396 168.766)" fill="#fff"/>
  <path id="Path_49" data-name="Path 49" d="M10.718-155.228H-15.85c.753-2.082.753-2.082,2.67-2.082H9.5a2,2,0,0,1,1.945,1.643c.041.3-.055.438-.37.438A3.081,3.081,0,0,0,10.718-155.228Z" transform="translate(33.982 164.185)" fill="#fff"/>
  <path id="Path_50" data-name="Path 50" d="M10.291-145.782q-12.407-.062-24.829,0c-.753,0-1.205-.219-1.342-1.068H11.592C11.482-146.138,11.153-145.782,10.291-145.782Z" transform="translate(33.971 168.049)" fill="#fff"/>
  <path id="Path_51" data-name="Path 51" d="M11.767-147.546c-9.107-.014-18.228-.027-27.335.014-.822,0-.959-.479-.972-1.013-.027-.644.575-.356.89-.356,4.6-.027,9.2-.014,13.791-.014,4.56,0,9.121-.014,13.667.014.329,0,.959-.329.9.466C12.685-147.861,12.479-147.532,11.767-147.546Z" transform="translate(33.727 167.266)" fill="#fff"/>
  <path id="Path_52" data-name="Path 52" d="M-16.539-153.566c-.055-1.137.507-1.6,1.6-1.6,4.4-.014,8.792,0,13.188,0H10.481c1.9,0,1.9,0,2.342,2.068H9.536c-8.231,0-16.461.014-24.705-.027C-15.594-153.128-16.484-152.553-16.539-153.566Z" transform="translate(33.726 164.974)" fill="#fff"/>
  <path id="Path_53" data-name="Path 53" d="M-16.85-151.809c.014-.671.041-1.191,1.082-1.191,9.3.055,18.611.041,27.91.027.63,0,1.1-.027,1.15.877s-.438.822-1,.822q-7.066-.021-14.133-.014c-4.629,0-9.258.014-13.886-.014C-16.11-151.3-16.877-150.877-16.85-151.809Z" transform="translate(33.612 165.777)" fill="#fff"/>
  <path id="Path_54" data-name="Path 54" d="M-16.86-150.329c-.027-.972.726-.534,1.1-.534,4.629-.027,9.258-.014,13.9-.014,4.711,0,9.408-.014,14.119,0,.438,0,1.068-.3,1.041.644-.027.781-.288.986-1.054.986q-14.01-.041-28.033.014C-16.682-149.234-16.846-149.617-16.86-150.329Z" transform="translate(33.608 166.53)" fill="#fff"/>
  <path id="Path_55" data-name="Path 55" d="M25.485-142.459c-.041,5.834-.027,11.682-.027,17.516s-.014,11.7.027,17.529c.014,1.013-.288,1.232-1.26,1.219q-13.722-.041-27.444,0c-.972.014-1.274-.205-1.26-1.219.055-5.04-.164-10.107.068-15.146.356-7.7,3.821-13.695,10.833-17.242a37.573,37.573,0,0,1,17.913-3.876C25.293-143.664,25.485-143.349,25.485-142.459Z" transform="translate(38.168 169.218)" fill="#fff"/>
  <path id="Path_56" data-name="Path 56" d="M71.3-111.85c.26,2.041.7,4.013,2.424,5.56H62.893c-.137-.288.151-.4.288-.561a7.837,7.837,0,0,0,1.643-6.437c-.863-7.08-1.958-14.133-3.068-21.282a2.439,2.439,0,0,0-.657,1.219q-5.238,13.065-10.449,26.13c-.452,1.137-.657,1.205-1.63.411a12.549,12.549,0,0,1-2.931-3.835c-2.383-4.41-4.108-9.121-6.149-13.695-1.493-3.341-2.917-6.71-4.6-10.079-.205,1.52-.425,3.027-.616,4.547-.753,5.916-1.479,11.819-2.232,17.735a4.319,4.319,0,0,0,2.342,4.711A20.4,20.4,0,0,0,37.8-106.3H23.63c-.014-.055-.055-.164-.027-.192,3.2-3.1,3.876-7.162,4.451-11.312,1-7.354,1.862-14.722,2.725-22.09a3.423,3.423,0,0,0-1.958-3.465c3.287-.137,6.491-.041,9.7.055.74.027.918.425,1.137.945l9.778,23.336c.1.219.192.425.315.7.438-.26.479-.712.616-1.068,3-7.244,5.971-14.5,8.984-21.747a1.612,1.612,0,0,0-.315-2.123H69.083c.219,0,.507-.068.561.26.055.246.027.479-.288.548-1.63.37-1.643,1.684-1.547,2.9.151,2.041.479,4.067.74,6.108Q69.925-122.662,71.3-111.85Z" transform="translate(48.555 169.313)" fill="#fff"/>
  <path id="Path_57" data-name="Path 57" d="M88.366-106.327H100.02c-2.177-1.4-2.972-3.41-3.766-5.437q-6.122-15.448-12.271-30.882a.872.872,0,0,0-.931-.671c-2.657.027-5.314.014-7.97.027-.233,0-.63-.192-.657.246a.669.669,0,0,0,.52.794,1.7,1.7,0,0,1,1.1,2,5.466,5.466,0,0,1-.425,1.589q-4.067,9.963-8.162,19.912c-.288.726-.575,1.465-.89,2.191-1.506,3.6-2.657,7.409-5.834,10.216H71.179c-1.808-1.274-1.684-2.89-1.109-4.519,1-2.821,2.082-5.615,3.081-8.436a.989.989,0,0,1,1.109-.781q5.526.062,11.052,0a1.115,1.115,0,0,1,1.219.822c1.109,2.821,2.26,5.629,3.424,8.436a3.734,3.734,0,0,1,.247,1.726A4.38,4.38,0,0,1,88.366-106.327ZM75.411-125.047c1.493-3.67,2.944-7.272,4.506-11.161,1.6,3.848,3.081,7.423,4.643,11.161Z" transform="translate(62.276 169.35)" fill="#fff"/>
  <path id="Path_58" data-name="Path 58" d="M108.216-143.284c3.163-.027,6.327-.014,9.518-.014.041.548-.342.835-.561,1.178q-6.122,9.223-12.257,18.433a2.958,2.958,0,0,0-.548,1.753c.041,3.4,0,6.793.041,10.189a7.159,7.159,0,0,0,1.972,5.423H95.809c.082-.479.452-.7.671-1a5.708,5.708,0,0,0,1.315-3.7c-.068-3.588-.027-7.19-.014-10.778a3.11,3.11,0,0,0-.493-1.767q-4.93-7.95-9.819-15.927a6.567,6.567,0,0,0-3.027-2.725,2.607,2.607,0,0,1-1.082-1.041c2.575,0,4.971-.11,7.354.041a4.08,4.08,0,0,1,3.15,2.273q3.636,5.957,7.327,11.887c.205.342.425.657.712,1.1,1.356-2.15,2.643-4.2,3.944-6.259.931-1.506,1.89-3,2.821-4.519a2.1,2.1,0,0,0-.794-3.3c-.4-.233-.808-.4-.657-.945S107.874-143.284,108.216-143.284Z" transform="translate(70.637 169.345)" fill="#fff"/>
  <path id="Path_59" data-name="Path 59" d="M149.046-126.86c-.945-7.642-5.081-12.969-12.558-15.366a23.854,23.854,0,0,0-14.379-.041c-13.037,3.848-17.831,18.789-9.23,29.033a21.338,21.338,0,0,0,16.283,7.546C141.747-105.578,150.525-115.1,149.046-126.86Zm-8.039,8.395c-1.78,4.588-6.806,8.217-11.49,7.916-6.847.055-11.914-4.341-13.215-11.5a15.691,15.691,0,0,1,2.78-12.462c3.232-4.451,7.97-5.409,13.051-4.437,5.272,1,8.395,4.492,9.545,9.668A18.157,18.157,0,0,1,141.007-118.465Z" transform="translate(79.944 169.341)" fill="#fff"/>
  <path id="Path_60" data-name="Path 60" d="M170.826-107.265c.493.329,1.041.561,1.835,1-2.849,0-5.451.014-8.053-.014a3.87,3.87,0,0,1-1.958-.808,17.67,17.67,0,0,1-4.382-4.3c-3.328-4.369-6.45-8.888-9.573-13.407-.671-.986-.561-1.137.671-1.342a14.381,14.381,0,0,0,5.4-2.054c2.547-1.6,3.506-3.78,2.835-6.3a6.15,6.15,0,0,0-5.766-4.492c-.315-.014-.63-.014-.945-.014-2.657.082-2.931.37-2.931,2.931q-.021,12.695-.014,25.363c-.014,1.6.151,3.15,1.643,4.369h-10.23c2.273-1.958,2.356-4.423,2.342-7.012-.069-8.285-.041-16.584-.014-24.883a4.567,4.567,0,0,0-2.082-4c-.274-.178-.411-.288-.37-.616.041-.356.26-.438.575-.438,5.533.151,11.12-.507,16.612.329a9.064,9.064,0,0,1,7.751,10.34,9.4,9.4,0,0,1-3.478,5.628,16.034,16.034,0,0,1-3.862,2.52c-.356.178-.753.3-.3.835,4.149,4.957,7.587,10.518,12.407,14.941A16.242,16.242,0,0,0,170.826-107.265Z" transform="translate(91.278 169.329)" fill="#fff"/>
  <path id="Path_61" data-name="Path 61" d="M191.574-106.344h11.545a6.872,6.872,0,0,1-3.109-3.711c-1-2.369-1.89-4.766-2.835-7.135q-5.012-12.592-10.038-25.144c-.178-.438-.205-1-.959-.986-2.739.041-5.478.014-8.2.014-.219,0-.52-.082-.534.274a.748.748,0,0,0,.247.644c1.7,1.52,1.767,1.767.918,3.848q-5.382,13.147-10.75,26.266a17.3,17.3,0,0,1-2.807,4.643c-.37.425-.753.822-1.178,1.287h10.408c-1.835-1.191-1.739-2.78-1.191-4.382,1-2.9,2.109-5.765,3.136-8.655a.9.9,0,0,1,1.041-.685c3.725.014,7.45.027,11.175-.014a1.012,1.012,0,0,1,1.109.781q1.7,4.273,3.478,8.532a3.291,3.291,0,0,1-.726,3.615C192.067-106.892,191.643-106.769,191.574-106.344Zm-13.12-18.707c1.506-3.711,2.972-7.327,4.506-11.161,1.589,3.807,3.081,7.423,4.629,11.161Z" transform="translate(100.384 169.354)" fill="#fff"/>
  <path id="Path_62" data-name="Path 62" d="M.847-107.815c0,1.6,0,1.6-1.534,1.6h-27.1c-.438,0-.863.027-1.3.041v-37.441A38.238,38.238,0,0,1-11.068-140.3C-3.316-136.793.408-130.521.806-122.263,1.038-117.456.847-112.622.847-107.815Z" transform="translate(29.09 169.223)" fill="#fff"/>
  <path id="Path_63" data-name="Path 63" d="M5.112-159.564H-12.13a14.034,14.034,0,0,1,5.779-2.506c.247-.055.575.082.726-.26h4.273c1.287.548,2.725.657,3.985,1.315A13.979,13.979,0,0,1,5.112-159.564Z" transform="translate(35.356 162.33)" fill="#fff"/>
  <path id="Path_64" data-name="Path 64" d="M25.485-107.414c.014,1.013-.288,1.232-1.26,1.219q-13.722-.041-27.444,0c-.972.014-1.274-.205-1.26-1.219.055-5.04-.164-10.107.068-15.146.356-7.7,3.821-13.695,10.833-17.242a37.573,37.573,0,0,1,17.913-3.876c.959.014,1.15.329,1.15,1.219-.041,5.834-.027,11.682-.027,17.516S25.444-113.248,25.485-107.414Z" transform="translate(38.168 169.218)" fill="#fff"/>
  <path id="Path_65" data-name="Path 65" d="M73.725-106.29H62.893c-.137-.288.151-.4.288-.561a7.837,7.837,0,0,0,1.643-6.437c-.863-7.08-1.958-14.133-3.068-21.282a2.439,2.439,0,0,0-.657,1.219q-5.238,13.065-10.449,26.13c-.452,1.137-.657,1.205-1.63.411a12.549,12.549,0,0,1-2.931-3.835c-2.383-4.41-4.108-9.121-6.149-13.695-1.493-3.341-2.917-6.71-4.6-10.079-.205,1.52-.425,3.027-.616,4.547-.753,5.916-1.479,11.819-2.232,17.735a4.319,4.319,0,0,0,2.342,4.711A20.4,20.4,0,0,0,37.8-106.3H23.63c-.014-.055-.055-.164-.027-.192,3.2-3.1,3.876-7.162,4.451-11.312,1-7.354,1.862-14.722,2.725-22.09a3.423,3.423,0,0,0-1.958-3.465c3.287-.137,6.491-.041,9.7.055.74.027.918.425,1.137.945l9.778,23.336c.1.219.192.425.315.7.438-.26.479-.712.616-1.068,3-7.244,5.971-14.5,8.984-21.747a1.612,1.612,0,0,0-.315-2.123H69.083c.219,0,.507-.068.561.26.055.246.027.479-.288.548-1.63.37-1.643,1.684-1.547,2.9.151,2.041.479,4.067.74,6.108q1.376,10.785,2.753,21.6C71.561-109.809,72-107.837,73.725-106.29Z" transform="translate(48.555 169.313)" fill="#fff"/>
  <path id="Path_66" data-name="Path 66" d="M149.046-126.86c-.945-7.642-5.081-12.969-12.558-15.366a23.854,23.854,0,0,0-14.379-.041c-13.037,3.848-17.831,18.789-9.23,29.033a21.338,21.338,0,0,0,16.283,7.546C141.747-105.578,150.525-115.1,149.046-126.86Zm-8.039,8.395c-1.78,4.588-6.806,8.217-11.49,7.916-6.847.055-11.914-4.341-13.215-11.5a15.691,15.691,0,0,1,2.78-12.462c3.232-4.451,7.97-5.409,13.051-4.437,5.272,1,8.395,4.492,9.545,9.668A18.157,18.157,0,0,1,141.007-118.465Z" transform="translate(79.944 169.341)" fill="#fff"/>
  <path id="Path_67" data-name="Path 67" d="M172.661-106.265c-2.849,0-5.451.014-8.053-.014a3.87,3.87,0,0,1-1.958-.808,17.67,17.67,0,0,1-4.382-4.3c-3.328-4.369-6.45-8.888-9.573-13.407-.671-.986-.561-1.137.671-1.342a14.381,14.381,0,0,0,5.4-2.054c2.547-1.6,3.506-3.78,2.835-6.3a6.15,6.15,0,0,0-5.766-4.492c-.315-.014-.63-.014-.945-.014-2.657.082-2.931.37-2.931,2.931q-.021,12.695-.014,25.363c-.014,1.6.151,3.15,1.643,4.369h-10.23c2.273-1.958,2.356-4.423,2.342-7.012-.069-8.285-.041-16.584-.014-24.883a4.567,4.567,0,0,0-2.082-4c-.274-.178-.411-.288-.37-.616.041-.356.26-.438.575-.438,5.533.151,11.12-.507,16.612.329a9.064,9.064,0,0,1,7.751,10.34,9.4,9.4,0,0,1-3.478,5.628,16.034,16.034,0,0,1-3.862,2.52c-.356.178-.753.3-.3.835,4.149,4.957,7.587,10.518,12.407,14.941a16.242,16.242,0,0,0,1.89,1.424C171.319-106.936,171.866-106.7,172.661-106.265Z" transform="translate(91.278 169.329)" fill="#fff"/>
  <path id="Path_68" data-name="Path 68" d="M88.366-106.327H100.02c-2.177-1.4-2.972-3.41-3.766-5.437q-6.122-15.448-12.271-30.882a.872.872,0,0,0-.931-.671c-2.657.027-5.314.014-7.97.027-.233,0-.63-.192-.657.246a.669.669,0,0,0,.52.794,1.7,1.7,0,0,1,1.1,2,5.466,5.466,0,0,1-.425,1.589q-4.067,9.963-8.162,19.912c-.288.726-.575,1.465-.89,2.191-1.506,3.6-2.657,7.409-5.834,10.216H71.179c-1.808-1.274-1.684-2.89-1.109-4.519,1-2.821,2.082-5.615,3.081-8.436a.989.989,0,0,1,1.109-.781q5.526.062,11.052,0a1.115,1.115,0,0,1,1.219.822c1.109,2.821,2.26,5.629,3.424,8.436a3.734,3.734,0,0,1,.247,1.726A4.38,4.38,0,0,1,88.366-106.327ZM75.411-125.047c1.493-3.67,2.944-7.272,4.506-11.161,1.6,3.848,3.081,7.423,4.643,11.161Z" transform="translate(62.276 169.35)" fill="#fff"/>
  <path id="Path_69" data-name="Path 69" d="M191.574-106.344h11.545a6.872,6.872,0,0,1-3.109-3.711c-1-2.369-1.89-4.766-2.835-7.135q-5.012-12.592-10.038-25.144c-.178-.438-.205-1-.959-.986-2.739.041-5.478.014-8.2.014-.219,0-.52-.082-.534.274a.748.748,0,0,0,.247.644c1.7,1.52,1.767,1.767.918,3.848q-5.382,13.147-10.75,26.266a17.3,17.3,0,0,1-2.807,4.643c-.37.425-.753.822-1.178,1.287h10.408c-1.835-1.191-1.739-2.78-1.191-4.382,1-2.9,2.109-5.765,3.136-8.655a.9.9,0,0,1,1.041-.685c3.725.014,7.45.027,11.175-.014a1.012,1.012,0,0,1,1.109.781q1.7,4.273,3.478,8.532a3.291,3.291,0,0,1-.726,3.615C192.067-106.892,191.643-106.769,191.574-106.344Zm-13.12-18.707c1.506-3.711,2.972-7.327,4.506-11.161,1.589,3.807,3.081,7.423,4.629,11.161Z" transform="translate(100.384 169.354)" fill="#fff"/>
  <path id="Path_70" data-name="Path 70" d="M104.916-123.687a2.958,2.958,0,0,0-.548,1.753c.041,3.4,0,6.793.041,10.189a7.159,7.159,0,0,0,1.972,5.423H95.809c.082-.479.452-.7.671-1a5.708,5.708,0,0,0,1.315-3.7c-.068-3.588-.027-7.19-.014-10.778a3.11,3.11,0,0,0-.493-1.767q-4.93-7.95-9.819-15.927a6.567,6.567,0,0,0-3.027-2.725,2.607,2.607,0,0,1-1.082-1.041c2.575,0,4.971-.11,7.354.041a4.08,4.08,0,0,1,3.15,2.273q3.636,5.957,7.327,11.887c.205.342.425.657.712,1.1,1.356-2.15,2.643-4.2,3.944-6.259.931-1.506,1.89-3,2.821-4.519a2.1,2.1,0,0,0-.794-3.3c-.4-.233-.808-.4-.657-.945s.657-.3,1-.3c3.163-.027,6.327-.014,9.518-.014.041.548-.342.835-.561,1.178Q111.051-132.9,104.916-123.687Z" transform="translate(70.637 169.345)" fill="#fff"/>
  <path id="Path_71" data-name="Path 71" d="M12.823-153.1H9.536c-8.231,0-16.461.014-24.705-.027-.425,0-1.315.575-1.369-.438-.055-1.137.507-1.6,1.6-1.6,4.4-.014,8.792,0,13.188,0H10.481C12.384-155.168,12.384-155.168,12.823-153.1Z" transform="translate(33.726 164.974)" fill="#fff"/>
  <path id="Path_72" data-name="Path 72" d="M11.074-155.228a3.081,3.081,0,0,0-.356,0H-15.85c.753-2.082.753-2.082,2.67-2.082H9.5a2,2,0,0,1,1.945,1.643C11.485-155.365,11.389-155.228,11.074-155.228Z" transform="translate(33.982 164.185)" fill="#fff"/>
  <path id="Path_73" data-name="Path 73" d="M9.241-157.364h-23.8c.986-1.342,1.808-2.4,3.684-2.356,5.4.123,10.778.041,16.173.041C7.53-159.679,7.831-159.5,9.241-157.364Z" transform="translate(34.458 163.294)" fill="#fff"/>
  <path id="Path_74" data-name="Path 74" d="M13.292-152.1c.041.9-.438.822-1,.822q-7.066-.021-14.133-.014c-4.629,0-9.258.014-13.886-.014-.383,0-1.15.425-1.123-.507.014-.671.041-1.191,1.082-1.191,9.3.055,18.611.041,27.91.027C12.772-152.973,13.238-153,13.292-152.1Z" transform="translate(33.612 165.777)" fill="#fff"/>
  <path id="Path_75" data-name="Path 75" d="M13.3-150.233c-.027.781-.288.986-1.054.986q-14.01-.041-28.033.014c-.89,0-1.054-.383-1.068-1.1-.027-.972.726-.534,1.1-.534,4.629-.027,9.258-.014,13.9-.014,4.711,0,9.408-.014,14.119,0C12.693-150.877,13.323-151.178,13.3-150.233Z" transform="translate(33.608 166.53)" fill="#fff"/>
  <path id="Path_76" data-name="Path 76" d="M12.712-148.436c-.027.575-.233.9-.945.89-9.107-.014-18.228-.027-27.335.014-.822,0-.959-.479-.972-1.013-.027-.644.575-.356.89-.356,4.6-.027,9.2-.014,13.791-.014,4.56,0,9.121-.014,13.667.014C12.137-148.9,12.767-149.231,12.712-148.436Z" transform="translate(33.727 167.266)" fill="#fff"/>
  <path id="Path_77" data-name="Path 77" d="M11.592-146.85c-.11.712-.438,1.068-1.3,1.068q-12.407-.062-24.829,0c-.753,0-1.205-.219-1.342-1.068Z" transform="translate(33.971 168.049)" fill="#fff"/>
  <path id="Path_78" data-name="Path 78" d="M9.537-144.91a1.291,1.291,0,0,1-1.493,1.082q-10.559-.041-21.131,0a1.48,1.48,0,0,1-1.643-1.082Z" transform="translate(34.396 168.766)" fill="#fff"/>
  <path id="Path_79" data-name="Path 79" d="M6.226-142.85a1.98,1.98,0,0,1-1.821.9q-7.7-.041-15.42,0a2.088,2.088,0,0,1-1.794-.9Z" transform="translate(35.105 169.527)" fill="#fff"/>
  <path id="Path_80" data-name="Path 80" d="M-.457-140.84a13.078,13.078,0,0,1-8.463,0Z" transform="translate(36.542 170.27)" fill="#fff"/>
</svg>
