<svg id="Group_3" data-name="Group 3" xmlns="http://www.w3.org/2000/svg" width="189.035" height="68.01" viewBox="0 0 189.035 68.01">
  <path id="Path_11" data-name="Path 11" d="M424.217-197.578q-12.128,5.4-24.258,10.792Q346.87-163.294,293.784-139.8c-7.931,3.52-15.98,6.606-24.563,8.1a39.846,39.846,0,0,1-16.713-.134c-9.5-2.375-15.018-9.4-15.169-19.2a33.166,33.166,0,0,1,3.044-13.748c5.566-12.88,13.884-23.853,23.7-33.771a1.84,1.84,0,0,1,.414-.23c.352.658-.165,1.08-.383,1.541-2.439,5.176-4.638,10.442-5.48,16.147-.986,6.682.013,12.776,5.814,17.154,3.662,2.763,7.96,3.757,12.467,3.972,6.121.291,11.952-1.28,17.766-2.865q58.09-15.841,116.169-31.714c4.219-1.152,8.445-2.278,12.668-3.416C423.873-198.052,424.25-198.194,424.217-197.578Z" transform="translate(-237.336 198.884)" fill="#fff"/>
  <path id="Path_12" data-name="Path 12" d="M375.758-197.549l-.7-.377,2.851-.929A3.228,3.228,0,0,1,375.758-197.549Z" transform="translate(-188.877 198.855)" fill="#fff"/>
</svg>
