<svg id="Group_4" data-name="Group 4" xmlns="http://www.w3.org/2000/svg" width="128.32" height="128.334" viewBox="0 0 128.32 128.334">
  <path id="Path_13" data-name="Path 13" d="M676.25-88.894c-.08-.816-.1-1.647-.128-2.207a25.581,25.581,0,0,1,1.167-7.868,5.116,5.116,0,0,1,1.007-1.855.9.9,0,0,1,1.615.112,6.38,6.38,0,0,1,.863,2.734,25.186,25.186,0,0,1-.911,10.906A6.008,6.008,0,0,1,679-85.312c-.672.88-1.391.832-1.9-.144A8.853,8.853,0,0,1,676.25-88.894Z" transform="translate(-640.844 168.759)" fill="#fff"/>
  <path id="Path_14" data-name="Path 14" d="M735.793-93.146a.605.605,0,0,0-.384.608c.032,1.071.016,2.143.016,3.214,0,1.087.016,2.159-.016,3.246,0,.432.128.448.464.272a6.973,6.973,0,0,0,2.223-1.7,4.815,4.815,0,0,0,1.375-3.582C739.311-93.226,737.664-94.153,735.793-93.146Zm0,0a.605.605,0,0,0-.384.608c.032,1.071.016,2.143.016,3.214,0,1.087.016,2.159-.016,3.246,0,.432.128.448.464.272a6.973,6.973,0,0,0,2.223-1.7,4.815,4.815,0,0,0,1.375-3.582C739.311-93.226,737.664-94.153,735.793-93.146Zm46.519,9.435c-.032-.88-.016-1.743-.112-2.607a63.2,63.2,0,0,0-1.839-9.755,63.625,63.625,0,0,0-4.158-11.194,66.425,66.425,0,0,0-5.005-8.555,65.248,65.248,0,0,0-6.125-7.6,55.649,55.649,0,0,0-4.43-4.254,66.931,66.931,0,0,0-7.836-5.9,62.474,62.474,0,0,0-12.105-6.045,58.381,58.381,0,0,0-21.092-3.854c-1.6.016-3.2.016-4.813.048a47.38,47.38,0,0,0-6.732.544,64.42,64.42,0,0,0-14.008,3.918,63.534,63.534,0,0,0-10.522,5.421,64.832,64.832,0,0,0-12.6,10.57c-1.343,1.471-2.655,2.974-3.87,4.557a65.387,65.387,0,0,0-7.276,12.041,63.447,63.447,0,0,0-4.638,14.008,40.678,40.678,0,0,0-.943,6.956,21.662,21.662,0,0,1-.144,2.7v.32a1.642,1.642,0,0,1,.048.736v.576a5.548,5.548,0,0,1-.048,1.151v1.279a3.525,3.525,0,0,1,0,1.3v.32a.882.882,0,0,1,0,.64v.64a5.182,5.182,0,0,1,.1,1.311,37.837,37.837,0,0,0,.656,6.572,63.893,63.893,0,0,0,6.332,18.454,9.2,9.2,0,0,0,1.3,2.191c.064.016.144.032.208.048s.144.032.208.048a11.979,11.979,0,0,0,2.926.128,2.533,2.533,0,0,0,2.287-1.423,4.989,4.989,0,0,0,.4-2.607,5.772,5.772,0,0,0-2.079-3.566c-1.007-.991-2.111-1.887-3.038-2.974a9.735,9.735,0,0,1-2.191-4.174,12.245,12.245,0,0,1-.208-4.7,10.709,10.709,0,0,1,1.279-3.886,12.788,12.788,0,0,1,9.131-6.141,45.568,45.568,0,0,1,4.893-.432,6.565,6.565,0,0,1,1.12.016c.591.064.7.192.7.768v2.83c0,1.663.016,3.326,0,4.973,0,.528-.1.624-.608.528-.432-.08-.88-.064-1.327-.112a6.172,6.172,0,0,0-3.182.4,2.2,2.2,0,0,0-1.407,2.031,4.871,4.871,0,0,0,1.471,3.71c.928,1.007,1.951,1.935,2.894,2.926a11.27,11.27,0,0,1,2.271,3.326,11.929,11.929,0,0,1,.768,6.029,11.083,11.083,0,0,1-3.23,6.588,14.34,14.34,0,0,1-5.741,3.39,4.44,4.44,0,0,0-1.535.56c-.016.016-.016.016-.016.032v.016c-.032.016-.032.032-.048.048,0,.016-.016.032-.016.064a.828.828,0,0,0,.224.528,37.7,37.7,0,0,0,2.7,3.086,59.725,59.725,0,0,0,4.925,4.717,65.784,65.784,0,0,0,6.908,5.165A63.594,63.594,0,0,0,693-20a61.824,61.824,0,0,0,12.681,3.886,38.9,38.9,0,0,0,6.4.832,16.8,16.8,0,0,1,2.367.144h.224a2.3,2.3,0,0,1,.736-.064h.752a3.149,3.149,0,0,1,.863.064h2.351a3.149,3.149,0,0,1,.864-.064h.752c.016,0,.032.016.048.016a1.165,1.165,0,0,1,.576.048h.224c.576-.08,1.151-.08,1.743-.112a33.2,33.2,0,0,0,3.342-.224,63.45,63.45,0,0,0,8.459-1.727,63.706,63.706,0,0,0,10.73-4.03,61.993,61.993,0,0,0,9.371-5.549,61.937,61.937,0,0,0,6.924-5.677c1.5-1.439,2.958-2.926,4.318-4.51a67.6,67.6,0,0,0,4.909-6.38,63.831,63.831,0,0,0,5.085-9.067,64.531,64.531,0,0,0,3.822-10.65,53.96,53.96,0,0,0,1.839-13.752C782.375-79.122,782.407-81.424,782.312-83.711ZM683.566-77.97a14.376,14.376,0,0,1,6.972-5.661c4-1.439,7.98-.144,10.666,3.422a16.944,16.944,0,0,1,3.086,7.852A21.567,21.567,0,0,1,704.53-69a25.034,25.034,0,0,1-4.941,15.144,14.072,14.072,0,0,1-6.492,5.021,9,9,0,0,1-10.378-3.038,15.692,15.692,0,0,1-3.294-7.708A24.928,24.928,0,0,1,683.566-77.97Zm35.261,19.205a15.343,15.343,0,0,1-8.044,2.287c-1.327-.016-2.638-.016-3.966,0-.352,0-.48-.08-.48-.464.016-2.718.016-5.453,0-8.171,0-.352.064-.448.448-.4a24.2,24.2,0,0,0,4.03.352,2.525,2.525,0,0,0,2.7-2.4,4.53,4.53,0,0,0-1.119-3.9,29.165,29.165,0,0,0-3.022-2.942c-5.4-4.845-4.445-14.712,2.543-18.566a16.945,16.945,0,0,1,7.452-2c1.3-.064,2.606-.112,3.9-.064.336.016.448.112.448.464-.032,1.455-.016,2.926-.016,4.382,0,1.439-.016,2.894.016,4.334,0,.432-.112.528-.544.448a9.99,9.99,0,0,0-3.774-.112c-1.951.368-2.654,1.535-2.127,3.454a5.574,5.574,0,0,0,1.407,2.367c.8.816,1.6,1.647,2.431,2.4C726.47-72.421,725.863-62.955,718.826-58.765Zm30.847-12.6q-3.886,1.151-7.756,2.4c-.432.128-.624.1-.832-.336-1.759-3.566-3.55-7.132-5.341-10.7-.064-.144-.1-.336-.32-.448v.544c0,4.446-.016,8.907,0,13.353.016.464-.1.672-.56.816q-3.91,1.175-7.8,2.415c-.432.144-.5.032-.48-.384q.288-16.647.576-33.294a.736.736,0,0,1,.4-.72,26.226,26.226,0,0,1,9.595-3.518,14.979,14.979,0,0,1,5.533.16,6.663,6.663,0,0,1,5.6,6.4,12.1,12.1,0,0,1-2.622,9.1,5.778,5.778,0,0,1-1.423,1.3c-.336.176-.32.352-.16.656,1.967,3.854,3.9,7.708,5.869,11.546C750.169-71.654,750.153-71.51,749.673-71.366ZM770.91-82.592a16.056,16.056,0,0,1-5.821,5.613A9.163,9.163,0,0,1,752.744-79.7a17.361,17.361,0,0,1-3.134-8.4c-.112-.944-.128-1.887-.16-3.038a25.118,25.118,0,0,1,4.845-14.76A14.754,14.754,0,0,1,760-110.672a9.153,9.153,0,0,1,11.642,3.15,16.284,16.284,0,0,1,2.958,7.452A25.355,25.355,0,0,1,770.91-82.592Zm-7.388-20.181c-.48-.768-1.088-.816-1.679-.144a5.218,5.218,0,0,0-.991,1.887,25.166,25.166,0,0,0-.912,10.906,6.271,6.271,0,0,0,.9,2.814.888.888,0,0,0,1.519.128,4.646,4.646,0,0,0,.943-1.6,21.994,21.994,0,0,0,1.247-6.844,22.88,22.88,0,0,0-.192-4.414A6.808,6.808,0,0,0,763.522-102.773Zm-27.729,9.627a.605.605,0,0,0-.384.608c.032,1.071.016,2.143.016,3.214,0,1.087.016,2.159-.016,3.246,0,.432.128.448.464.272a6.973,6.973,0,0,0,2.223-1.7,4.815,4.815,0,0,0,1.375-3.582C739.311-93.226,737.664-94.153,735.793-93.146Z" transform="translate(-654.06 143.475)" fill="#fff"/>
  <path id="Path_15" data-name="Path 15" d="M654.061-102.929a1.716,1.716,0,0,1,0,1.282Z" transform="translate(-654.061 167.767)" fill="#fff"/>
  <path id="Path_16" data-name="Path 16" d="M654.157-104.455a2.639,2.639,0,0,1-.1,1.187v-1.175C654.085-104.518,654.117-104.521,654.157-104.455Z" transform="translate(-654.061 166.824)" fill="#fff"/>
  <path id="Path_17" data-name="Path 17" d="M692.9-63.276a1.506,1.506,0,0,1,.872.093h-.855c-.042-.013-.058-.032-.05-.054S692.887-63.276,692.9-63.276Z" transform="translate(-630.814 191.512)" fill="#fff"/>
  <path id="Path_18" data-name="Path 18" d="M694.9-63.183a1.53,1.53,0,0,1,.87-.094c.037.029.046.051.029.07a.06.06,0,0,1-.045.024Z" transform="translate(-629.593 191.513)" fill="#fff"/>
  <path id="Path_19" data-name="Path 19" d="M654.061-105.268c.229.222.056.491.086.737-.019.082-.048.085-.086.011Z" transform="translate(-654.061 166.365)" fill="#fff"/>
  <path id="Path_20" data-name="Path 20" d="M691.96-63.179c.221-.233.493-.054.739-.091q.12.036.01.091Z" transform="translate(-631.355 191.508)" fill="#fff"/>
  <path id="Path_21" data-name="Path 21" d="M692.432-63.19a.854.854,0,0,0-.009-.091l.74,0a.63.63,0,0,1,.016.093Z" transform="translate(-631.078 191.519)" fill="#fff"/>
  <path id="Path_22" data-name="Path 22" d="M695.435-63.19c0-.03.009-.062.016-.094l.742,0q.1.058-.01.091Z" transform="translate(-629.273 191.519)" fill="#fff"/>
  <path id="Path_23" data-name="Path 23" d="M654.061-101.926a.474.474,0,0,1,0,.641Z" transform="translate(-654.061 168.368)" fill="#fff"/>
  <path id="Path_24" data-name="Path 24" d="M695.9-63.181a.826.826,0,0,1,.01-.091c.211.03.448-.125.632.091Z" transform="translate(-628.992 191.51)" fill="#fff"/>
  <path id="Path_25" data-name="Path 25" d="M654.061-104.8a.2.2,0,0,1,.086-.011l.01.534-.1.011Z" transform="translate(-654.061 166.641)" fill="#fff"/>
  <path id="Path_26" data-name="Path 26" d="M679.864-87.071A6.008,6.008,0,0,1,679-85.312c-.672.88-1.391.832-1.9-.144a8.853,8.853,0,0,1-.848-3.438c-.08-.816-.1-1.647-.128-2.207a25.581,25.581,0,0,1,1.167-7.868,5.116,5.116,0,0,1,1.007-1.855.9.9,0,0,1,1.615.112,6.38,6.38,0,0,1,.863,2.734A25.186,25.186,0,0,1,679.864-87.071Z" transform="translate(-640.844 168.759)" fill="#fff"/>
  <path id="Path_27" data-name="Path 27" d="M724.96-110.644a22,22,0,0,1-1.247,6.844,4.649,4.649,0,0,1-.943,1.6.888.888,0,0,1-1.519-.128,6.27,6.27,0,0,1-.9-2.814,25.167,25.167,0,0,1,.912-10.906,5.213,5.213,0,0,1,.991-1.887c.592-.672,1.2-.624,1.679.144a6.811,6.811,0,0,1,.831,2.735A22.88,22.88,0,0,1,724.96-110.644Z" transform="translate(-614.474 158.494)" fill="#fff"/>
  <path id="Path_28" data-name="Path 28" d="M708.994-109.787a4.816,4.816,0,0,1-1.375,3.582,6.974,6.974,0,0,1-2.223,1.7c-.336.176-.464.16-.464-.272.032-1.087.016-2.159.016-3.246,0-1.071.016-2.143-.016-3.214a.605.605,0,0,1,.384-.608C707.187-112.857,708.834-111.929,708.994-109.787Z" transform="translate(-623.583 162.178)" fill="#fff"/>
  <path id="Path_29" data-name="Path 29" d="M663.218-77.92a.2.2,0,0,1-.016.1.214.214,0,0,1-.1-.08.523.523,0,0,1-.224-.368.616.616,0,0,1,.256.24c.016,0,.016.016.032.032C663.186-77.968,663.2-77.952,663.218-77.92Z" transform="translate(-648.776 182.539)" fill="#fff"/>
  <path id="Path_30" data-name="Path 30" d="M679.864-87.071A6.008,6.008,0,0,1,679-85.312c-.672.88-1.391.832-1.9-.144a8.853,8.853,0,0,1-.848-3.438c-.08-.816-.1-1.647-.128-2.207a25.581,25.581,0,0,1,1.167-7.868,5.116,5.116,0,0,1,1.007-1.855.9.9,0,0,1,1.615.112,6.38,6.38,0,0,1,.863,2.734A25.186,25.186,0,0,1,679.864-87.071Z" transform="translate(-640.844 168.759)" fill="#fff"/>
  <path id="Path_31" data-name="Path 31" d="M724.96-110.644a22,22,0,0,1-1.247,6.844,4.649,4.649,0,0,1-.943,1.6.888.888,0,0,1-1.519-.128,6.27,6.27,0,0,1-.9-2.814,25.167,25.167,0,0,1,.912-10.906,5.213,5.213,0,0,1,.991-1.887c.592-.672,1.2-.624,1.679.144a6.811,6.811,0,0,1,.831,2.735A22.88,22.88,0,0,1,724.96-110.644Z" transform="translate(-614.474 158.494)" fill="#fff"/>
  <path id="Path_32" data-name="Path 32" d="M708.994-109.787a4.816,4.816,0,0,1-1.375,3.582,6.974,6.974,0,0,1-2.223,1.7c-.336.176-.464.16-.464-.272.032-1.087.016-2.159.016-3.246,0-1.071.016-2.143-.016-3.214a.605.605,0,0,1,.384-.608C707.187-112.857,708.834-111.929,708.994-109.787Z" transform="translate(-623.583 162.178)" fill="#fff"/>
</svg>
