<svg xmlns="http://www.w3.org/2000/svg" width="167.4" height="190.083" viewBox="0 0 167.4 190.083">
  <g id="Group_12" data-name="Group 12" transform="translate(-341.9 -842.7)">
    <path id="Path_660" data-name="Path 660" d="M424.045,900.066c-2.475-14.976-7.218-29.127-15.2-42.088-1.412-2.3-2.284-5.378-6.028-5.188.206-.587.317-.888.428-1.206,1.222-3.331.682-4.886-2.618-7.52-2.316-1.856-3.363-1.824-6.377.127a10.425,10.425,0,0,0-1.7,1.111,2.2,2.2,0,0,1-2.633.27c-5.2-1.967-10.661-2.38-16.166-2.459a5.563,5.563,0,0,0-1.38.365c1.666.873,3.776,1.126,3.347,3.538-.19,1.047-.857,2.538-1.666,2.84-2.142.761-3.712-.539-4.569-2.11-1.174.254-2.11.46-3.046.65a22.835,22.835,0,0,0-3.776.809c-1.824.73-3.474,1.682-5.6,1.523-1.793-.143-2.967,1.348-2.253,2.681.666,1.221.286,2.253.175,3.395a5.589,5.589,0,0,0-.048,1.983c.714,2.4,1.523,4.759,2.332,7.123a4.468,4.468,0,0,0,.682.9c.555-1.364.92-2.538,1.491-3.617a2.069,2.069,0,0,1,2.871-1.063,14.652,14.652,0,0,0,7.742,1.317c1.285-.079,1.777.619,1.7,1.936a16.818,16.818,0,0,0,.206,3.68c.206,1.348-.254,1.872-1.571,2.269a14.191,14.191,0,0,0-3.6,2.015c-.6.4-1.015,1.079-1.586,1.507-1.809,1.317-3.554.682-4.188-1.459-.143-.444-.3-.888-.571-1.729a9.265,9.265,0,0,0-1.237,5.314c.127,3.332,3.554,3.157,5.346,4.886-.333.238-.6.428-.873.619-2.824,1.951-5.775,3.76-8.44,5.9-3.569,2.856-4.109,9.5-1.174,12.723a9.624,9.624,0,0,1,.619-.746c1.586-1.65,3.157-3.347,4.854-4.918.349-.333,1.174-.159,1.793-.206a6.336,6.336,0,0,1-.063,1.9,4.2,4.2,0,0,1-1,1.348c-1.713,1.951-3.332,4.014-5.172,5.838-3.474,3.411-4.315,7.535-3.665,12.136.222,1.428.587,2.84.888,4.252.174,0,.365,0,.539-.016a19.579,19.579,0,0,1,1.222-1.777c1.6-1.888,3.173-3.792,4.918-5.537.476-.476,1.491-.4,2.253-.571-.111.777-.206,1.539-.365,2.3-.032.19-.27.349-.4.539-1.713,2.316-3.458,4.616-5.124,6.965-3.506,5.013-3.3,9.566.6,14.056,2.015,2.316,2.126,2.253,3.458-.54a21.262,21.262,0,0,1,6.853-8.471c.555-.4,1.555-.174,2.332-.254a6.44,6.44,0,0,1-.46,2.047c-2.189,3.474-5.029,6.584-6.028,10.708a7.544,7.544,0,0,0,1.967,7.647c1.079,1.063,2.142,2.173,3.284,3.173.476.412,1.253.936,1.7.793.444-.159.841-1.031.92-1.618a10.307,10.307,0,0,1,4.7-7.71c2.443-1.6,4.965-3.125,7.567-4.49,2.443-1.285,4.141-3.046,4.283-5.838.19-3.665.143-7.345.27-11.01a6.638,6.638,0,0,1,.6-1.793c.508.444,1.269.809,1.491,1.38a12.394,12.394,0,0,1,.254,8.122,10.911,10.911,0,0,0-.143,2.047c.761.016,1.634.286,2.253-.016a52.568,52.568,0,0,0,6.06-3.363,12.281,12.281,0,0,0,5.9-9.6c.206-2.427.3-4.854.428-7.266a7.3,7.3,0,0,1,.143-1.682c.111-.381.539-1,.73-.968a1.616,1.616,0,0,1,1.11.809,10.132,10.132,0,0,1,.476,3.141c-.111,2.285-.4,4.569-.65,7.313a19.907,19.907,0,0,0,3.569-.888c5.362-2.491,9.3-6.679,13.088-11.073A8.268,8.268,0,0,0,424.045,900.066Zm-23.987-49.433c-1.586-1.079-3.125-2.126-4.807-3.284a2.319,2.319,0,0,1,2.951-1.111C400.043,846.873,400.63,848.364,400.058,850.632Zm31.649,176.458c.016-2.38.063-4.743.016-7.123-.032-1.459.032-2.808,1.3-3.823.27-.222.3-.762.428-1.11h-8.075c-.079.111-.174.222-.27.333,2.808,1.888,2.047,4.521,1.9,7.123h-4.934c.333-2.538-1.031-5.188,1.92-7.5a27.346,27.346,0,0,0-8.027.333c2.522.936,1.872,2.887,1.9,4.569.032,2.538,0,5.092.032,7.631.016,1.6.143,3.22-1.745,4-.159.063-.174.444-.254.635h8.075c-2.015-1.84-2.4-3.728-1.682-7.5h4.791c.048,2.634.952,5.33-2.015,7.25.127.1.238.19.349.286h7.821C431.454,1030.771,431.708,1028.9,431.708,1027.091Zm40.3-12.152h-6.2c3.411,3.458,1.428,7.361,1.745,11.01-2.031-3.2-3.807-6.473-5.616-9.709-.286-.524-.73-1.333-1.142-1.364-1.967-.143-3.95-.063-6.076-.063.159.492.159.809.3.872,1.872.857,1.523,2.538,1.539,4.093,0,1.412.079,2.824-.016,4.236-.19,2.855,1.031,6.06-2.4,8.344h6.393c-.666-1.11-1.586-1.967-1.65-2.887-.206-2.792-.079-5.632-.079-8.44.127-.032.27-.079.413-.111,1.682,3.046,3.379,6.092,5.061,9.138,1.571,2.84,2.221,3.125,5.743,2.364,0-3.046-.127-6.124.032-9.2C470.179,1020.46,469.227,1017.445,472,1014.939Zm-104.5-.492a9.118,9.118,0,0,0,.048,18.228,9.114,9.114,0,0,0-.048-18.228Zm2.9,13.961a4.077,4.077,0,0,1-2.633,2.157c-1,.111-2.221-.761-3.173-1.444a2.437,2.437,0,0,1-.809-1.777,57.715,57.715,0,0,1,.032-7.409,3.5,3.5,0,0,1,3.316-3.458,4.03,4.03,0,0,1,3.807,3.458,31.138,31.138,0,0,1,.206,3.871.563.563,0,0,1,.159.032A18.523,18.523,0,0,1,370.408,1028.408Zm24.8,2.681c-.841-1.428-1.745-2.824-2.507-4.3-.476-.936-.619-2.078-1.158-2.982-1.523-2.538-1.047-4.648,1.126-6.488a17.491,17.491,0,0,1,1.618-1.158c.412-.27.841-.539,1.253-.809-.063-.1-.111-.206-.174-.3h-5.5c.159.888.65,1.84.349,2.269-1.491,2.142-3.189,4.156-4.807,6.219-.19-.111-.4-.206-.587-.317.254-2.729-.936-5.632,1.317-8.2h-7.615c2.6,1.888,1.951,4.188,2.015,6.314.048,1.586-.016,3.173.016,4.759.032,2.078.254,4.22-1.65,5.759-.064.063.016.317.032.508H386.7c-2.84-3.585-2.586-5.933.825-8.6.508,1.221.936,2.443,1.491,3.6.841,1.713,1.4,3.316-.587,4.648-.032.032.032.206.048.46h7.551C395.632,1031.818,395.41,1031.453,395.2,1031.089Zm-26.033-74.419c-.064-.571-.793-1.079-1.222-1.6a6.527,6.527,0,0,0-1.015,1.4c-2.586,6.679-5.188,13.342-7.678,20.068a10.309,10.309,0,0,1-6.3,6.409,8.633,8.633,0,0,0-5.2,5.648,4.846,4.846,0,0,1-1.809,2.538c-3.2,1.761-3.919,4.585-3.807,7.869a9.756,9.756,0,0,0,.016,1.523,7.675,7.675,0,0,0,.476,1.317,11.177,11.177,0,0,0,1.142-.6c1.507-1,1.348-2.618,1.4-4.125.032-1.65.539-3.062,2.078-3.776a6.043,6.043,0,0,0,3.284-4.093,6.244,6.244,0,0,1,4.632-4.505,9.023,9.023,0,0,0,6.266-5.7c2.57-6.378,5.045-12.8,7.456-19.228A6.786,6.786,0,0,0,369.171,956.669Zm121.393,66.773a8.269,8.269,0,0,0-5.013-7.583c-3.443-1.682-7.044-.73-10.788-.714,2.269,1.3,1.983,3.284,1.935,5.2-.048,2.205-.1,4.41.016,6.615.079,1.824.079,3.506-1.84,4.49-.206.1-.27.46-.444.809a4.151,4.151,0,0,0,1.158.365c2.38.016,4.759.032,7.123-.064C487.328,1032.405,490.9,1028.709,490.564,1023.442Zm-4.2,3.046c-.143,2.443-1.444,3.934-3.411,4.22-1.237.19-1.967-.127-1.92-1.555.032-1.793,0-3.6,0-5.41h.1c0-1.9.016-3.823-.016-5.743,0-.984.46-1.253,1.364-1.222,2.221.079,3.7,1.586,3.871,4.3A41.046,41.046,0,0,1,486.36,1026.488Zm-129.722-9.106c-.952-1.872-2.76-2.443-4.68-2.523-2.713-.111-5.426-.063-8.138-.047a7.645,7.645,0,0,0-1.317.238c-.079.111-.159.238-.238.365,2.094.825,1.65,2.522,1.666,4.045.016,2.078.048,4.172-.032,6.266-.079,2.316.809,4.886-2,6.695h8.138c-3.236-2.062-1.935-5.061-2.094-7.948,1.111,0,2.015.064,2.9-.016,1.856-.143,3.776-.286,5.092-1.856A4.518,4.518,0,0,0,356.638,1017.382Zm-7.916,5.029a1.22,1.22,0,0,1-.587-.857,14.248,14.248,0,0,1-.032-2.015v-.508c.016-2.57.1-2.681,1.9-2.554a3.182,3.182,0,0,1,2.983,3.236A3.322,3.322,0,0,1,348.722,1022.411Zm61.474-7.186a105.871,105.871,0,0,0-10.772-.254c-.063,0-.143.143-.46.508,1.951.714,1.7,2.316,1.555,3.712-.476,4.426,1.444,9.138-1.475,13.247h7.488c.159-.079.333-.174.492-.27-3.728-1.84-2.046-4.87-2.332-7.5,1.872-.19,3.569-.206,5.2-.539a4.657,4.657,0,0,0,3.887-4.505C413.8,1017.192,412.813,1015.542,410.2,1015.224Zm-.7,4.839c-.254,1.634-1.317,2.38-3.443,2.4-1.031.19-1.444-.3-1.349-1.428.079-.777-.032-1.571-.016-2.364,0-2.142,1.11-2.855,3.094-1.935A2.865,2.865,0,0,1,409.5,1020.063Zm41.866,12.263a34.961,34.961,0,0,1-1.761-4.505c-.9-3.728-1.6-7.5-2.443-11.248-.174-.777-.016-1.983-1.475-1.761-1.348.222-3.014-.7-3.649,1.618-1.079,3.9-2.411,7.758-3.744,11.612a45.97,45.97,0,0,1-1.92,4.2H440.8c-1.872-1.92-1-3.839.079-5.124.571-.682,3.03-.793,3.728-.159,1.555,1.412,1.285,3.474-.1,5.362Zm-10.026-7.377c.571-1.729,1.063-3.3,1.571-4.87.159,0,.317,0,.476-.016.381,1.539.746,3.078,1.19,4.886Z" transform="translate(0 0)" fill="#fff"/>
    <path id="Path_661" data-name="Path 661" d="M493.784,918.894a6.631,6.631,0,0,0,6.409,3.332c2.046-.063,4.061-.19,6.092-.286.159-.1.3-.175.444-.254a12.634,12.634,0,0,1-1.222-.619,15.691,15.691,0,0,1-6.108-7.06,7.827,7.827,0,0,0-5.6-4.934c-5.394-1.444-9.376-.3-11.422,4.839a9.959,9.959,0,0,0-.666,3.792c.111,4.664,2.189,8.551,5.045,12.12,4.141,5.14,8.313,10.264,12.327,15.515a14.475,14.475,0,0,1,2.7,9.614c-.159,4.283-3.744,6.346-7.5,4.363a8.812,8.812,0,0,1-4.807-5.648c-.841-3.348-1.491-6.726-2.459-10.026-3.538-11.93-11.5-20.291-22.051-26.351a46.375,46.375,0,0,1-10.391-7.789c-3.807-3.95-7.583-7.916-11.438-11.819a105.567,105.567,0,0,0-17.371-14.024c-1.412-.936-2.078-.682-3.173.555-2.9,3.3-5.981,6.473-9.154,9.519a19.964,19.964,0,0,1-7.6,4.315,7.825,7.825,0,0,0-3.887,3.014c-3.173,5.2-7.885,8.043-13.5,9.836a5.633,5.633,0,0,0-3.2,2.205c-1.618,3.125-4.283,4.664-7.329,5.9a13.074,13.074,0,0,0-6.52,5.918c-1.491,2.57-1.682,5.346-1.951,8.154-.19,2.015.1,4.22-.619,6.028-2.6,6.552-5.441,13.025-8.408,19.418a8.466,8.466,0,0,1-6.013,4.569,5.847,5.847,0,0,0-2.792,1.951,53.06,53.06,0,0,0-3.712,5.251,8.911,8.911,0,0,0-1.4,3.03c-.682,3.506.159,4.283,3.744,3.68,2.491-.428,5-.92,7.52-1.221,3.585-.428,7.187-.666,10.788-1.063,3.22-.333,4.981-1.951,5.838-5.029a25.064,25.064,0,0,1,1.618-4.981c3.443-6.5,7-12.929,12.787-17.768,1.507-1.253,2.856-2.634,3.141-4.839.222-1.682,1.7-2.11,3.252-1.967,1.6.127,2.919.7,3.078,2.522a2.213,2.213,0,0,0,2.015,2.316c1.428.222,2.173-.523,2.665-1.777a4.687,4.687,0,0,1,1.206-2.157c2.4-1.618,4.87-.65,5.711,2.094.048.159.032.381.143.476.571.539,1.158,1.444,1.793,1.475.571.032,1.444-.746,1.761-1.38,1.348-2.776,2.015-3.236,5.092-3.03a20.281,20.281,0,0,1,2.205.159c5.251.857,9.376-1.095,12.8-4.966,5.775-6.536,12.707-10.978,21.607-11.8a12.964,12.964,0,0,1,2.443.222c.032.27.079.524.127.793a22.893,22.893,0,0,1-3.744,1.523,28.556,28.556,0,0,0-11.93,5.822c-4.3,3.538-8.249,7.44-9.709,13.1-.524,2.015-.476,4.045,1.063,5.584a29.44,29.44,0,0,0,16.15,8.678c3.411.587,6.98.286,10.47.381a17.688,17.688,0,0,1,11.692,4.712,11.583,11.583,0,0,1,1.142,1.459c-.143.143-.27.285-.412.412-1.38-.682-2.76-1.444-4.172-2.062-6.044-2.665-12.279-2.6-18.593-1.237a9.84,9.84,0,0,1-7.2-.984,31.351,31.351,0,0,0-3.966-1.9c-3.712-1.459-6.663-.651-9.074,2.554a6.679,6.679,0,0,1-3.633,2.586,7.261,7.261,0,0,0-5.394,6.124c-.222,1.142.238,1.571,1.317,1.571a2.949,2.949,0,0,0,2.824-1.777c.65-1.19,1.586-1.269,2.221-.317,1.523,2.269,1.523,2.269,3.617.333.984-.9,1.888-.761,2.4.4.793,1.84,2.269,2.063,3.617.571,1.539-1.729,2.031-1.856,3.744-.349A5.818,5.818,0,0,0,446,973.816a8.653,8.653,0,0,1,2.871-.111c3.094.206,6.187.46,9.281.73a51.113,51.113,0,0,1,16.229,3.871c2.9,1.253,5.775,2.221,9.011,1.84,2.633-.3,4.426-1.6,5.013-4.093a19.843,19.843,0,0,0,.46-5.965c-.254-3.078.27-3.918,3.363-4.03,1.65-.063,3.284.032,4.918-.111a8.8,8.8,0,0,0,7.345-4.743,13.047,13.047,0,0,0,.413-11.93c-2.189-5.235-5.949-9.408-9.614-13.659-3.3-3.855-6.568-7.758-9.566-11.851a10.489,10.489,0,0,1-1.7-8.9,6.54,6.54,0,0,1,9.027-4.823c1.824.65,2.205,1.808,1,3.332A4.509,4.509,0,0,0,493.784,918.894Zm-142.1,55.636c-1.158-.206-1.539-1-1.412-2.11.159-1.412,1.158-2.522,2.237-2.157.666.238,1.111,1.063,1.38,1.348C353.719,973.625,352.735,974.72,351.688,974.53Zm5.394-.365a1.478,1.478,0,0,1-1.6-1.729c.063-1.222.476-2.491,1.935-2.491.635,0,1.269.841,1.6,1.079C359.033,972.9,358.081,974.181,357.082,974.165Zm5.061-.682c-.238-.317-.968-.825-1-1.348a1.85,1.85,0,0,1,2-2.031c.9-.032,1.539.286,1.555,1.333C364.728,972.848,363.824,973.261,362.142,973.483Z" transform="translate(2.57 23.688)" fill="#fff"/>
    <path id="Path_662" data-name="Path 662" d="M420.6,900.066c-2.475-14.976-7.218-29.127-15.2-42.088-1.412-2.3-2.284-5.378-6.028-5.188.206-.587.317-.888.428-1.206,1.222-3.331.682-4.886-2.618-7.52-2.316-1.856-3.363-1.824-6.377.127a10.426,10.426,0,0,0-1.7,1.111,2.2,2.2,0,0,1-2.633.27c-5.2-1.967-10.661-2.38-16.166-2.459a5.561,5.561,0,0,0-1.38.365c1.666.873,3.776,1.126,3.347,3.538-.19,1.047-.857,2.538-1.666,2.84-2.142.761-3.712-.539-4.569-2.11-1.174.254-2.11.46-3.046.65a22.834,22.834,0,0,0-3.776.809c-1.824.73-3.474,1.682-5.6,1.523-1.793-.143-2.967,1.348-2.253,2.681.666,1.221.286,2.253.174,3.395a5.589,5.589,0,0,0-.048,1.983c.714,2.4,1.523,4.759,2.332,7.123a4.468,4.468,0,0,0,.682.9c.555-1.364.92-2.538,1.491-3.617a2.069,2.069,0,0,1,2.871-1.063,14.652,14.652,0,0,0,7.742,1.317c1.285-.079,1.777.619,1.7,1.936a16.813,16.813,0,0,0,.206,3.68c.206,1.348-.254,1.872-1.571,2.269a14.189,14.189,0,0,0-3.6,2.015c-.6.4-1.015,1.079-1.586,1.507-1.808,1.317-3.554.682-4.188-1.459-.143-.444-.3-.888-.571-1.729a9.266,9.266,0,0,0-1.237,5.314c.127,3.332,3.554,3.157,5.346,4.886-.333.238-.6.428-.872.619-2.824,1.951-5.775,3.76-8.44,5.9-3.569,2.856-4.109,9.5-1.174,12.723a9.632,9.632,0,0,1,.619-.746c1.586-1.65,3.157-3.347,4.854-4.918.349-.333,1.174-.159,1.793-.206a6.337,6.337,0,0,1-.064,1.9,4.2,4.2,0,0,1-1,1.348c-1.713,1.951-3.332,4.014-5.172,5.838-3.474,3.411-4.315,7.535-3.665,12.136.222,1.428.587,2.84.888,4.252.174,0,.365,0,.539-.016a19.573,19.573,0,0,1,1.222-1.777c1.6-1.888,3.173-3.792,4.918-5.537.476-.476,1.491-.4,2.253-.571-.111.777-.206,1.539-.365,2.3-.032.19-.27.349-.4.539-1.713,2.316-3.458,4.616-5.124,6.965-3.506,5.013-3.3,9.566.6,14.056,2.015,2.316,2.126,2.253,3.459-.54a21.262,21.262,0,0,1,6.853-8.471c.555-.4,1.555-.174,2.332-.254a6.442,6.442,0,0,1-.46,2.047c-2.189,3.474-5.029,6.584-6.028,10.708a7.544,7.544,0,0,0,1.967,7.647c1.079,1.063,2.142,2.173,3.284,3.173.476.412,1.253.936,1.7.793.444-.159.841-1.031.92-1.618a10.307,10.307,0,0,1,4.7-7.71c2.443-1.6,4.966-3.125,7.567-4.49,2.443-1.285,4.141-3.046,4.283-5.838.19-3.665.143-7.345.27-11.01a6.638,6.638,0,0,1,.6-1.793c.508.444,1.269.809,1.491,1.38a12.394,12.394,0,0,1,.254,8.122,10.913,10.913,0,0,0-.143,2.047c.761.016,1.634.286,2.253-.016a52.564,52.564,0,0,0,6.06-3.363,12.281,12.281,0,0,0,5.9-9.6c.206-2.427.3-4.854.428-7.266a7.294,7.294,0,0,1,.143-1.682c.111-.381.539-1,.73-.968a1.615,1.615,0,0,1,1.11.809,10.13,10.13,0,0,1,.476,3.141c-.111,2.285-.4,4.569-.65,7.313a19.906,19.906,0,0,0,3.569-.888c5.362-2.491,9.3-6.679,13.088-11.073A8.268,8.268,0,0,0,420.6,900.066Zm-23.987-49.433c-1.586-1.079-3.125-2.126-4.807-3.284a2.319,2.319,0,0,1,2.951-1.111C396.593,846.873,397.18,848.364,396.609,850.632Z" transform="translate(3.45 0)" fill="#fff"/>
    <path id="Path_663" data-name="Path 663" d="M394.936,961c-.7,3.776-.325,5.664,1.685,7.518h-8.067c.071-.194.1-.573.252-.638,1.878-.785,1.764-2.394,1.743-4-.032-2.543,0-5.086-.035-7.629-.024-1.68.614-3.63-1.9-4.573a27.576,27.576,0,0,1,8.023-.33c-2.954,2.313-1.593,4.97-1.918,7.5h4.934c.133-2.6.9-5.243-1.91-7.128l.279-.322h8.07c-.127.35-.154.882-.428,1.1-1.277,1.019-1.339,2.364-1.306,3.827.054,2.373,0,4.748-.013,7.121-.008,1.807-.246,3.688,1.533,5.1h-7.807l-.354-.3c2.96-1.907,2.062-4.613,2.02-7.25Z" transform="translate(27.359 63.638)" fill="#fff"/>
    <path id="Path_664" data-name="Path 664" d="M417.313,957.416c0,2.816-.127,5.64.073,8.442.067.915.985,1.77,1.651,2.881H412.65c3.431-2.285,2.2-5.483,2.392-8.343.094-1.406.019-2.822.013-4.234,0-1.55.346-3.228-1.537-4.088-.133-.06-.143-.387-.3-.874,2.131,0,4.118-.078,6.09.065.412.03.841.836,1.131,1.358,1.81,3.244,3.582,6.509,5.624,9.707-.327-3.649,1.655-7.54-1.755-11.008h6.211c-2.783,2.511-1.821,5.519-1.958,8.28-.151,3.076-.033,6.165-.033,9.2-3.525.766-4.161.487-5.741-2.367q-2.527-4.566-5.064-9.128Z" transform="translate(41.49 63.614)" fill="#fff"/>
    <path id="Path_665" data-name="Path 665" d="M361.306,950.96a9.118,9.118,0,0,0,.048,18.228,9.114,9.114,0,0,0-.048-18.228Zm2.9,13.961a4.077,4.077,0,0,1-2.633,2.157c-1,.111-2.221-.761-3.173-1.444a2.437,2.437,0,0,1-.809-1.777,57.709,57.709,0,0,1,.032-7.409,3.5,3.5,0,0,1,3.316-3.458,4.03,4.03,0,0,1,3.807,3.458,31.155,31.155,0,0,1,.206,3.871.563.563,0,0,1,.159.032A18.522,18.522,0,0,1,364.21,964.921Z" transform="translate(6.198 63.487)" fill="#fff"/>
    <path id="Path_666" data-name="Path 666" d="M371.868,959.836c1.623-2.059,3.314-4.071,4.808-6.219.29-.417-.187-1.369-.344-2.27h5.5l.168.311c-.42.27-.845.531-1.256.811a18.652,18.652,0,0,0-1.623,1.147c-2.167,1.844-2.638,3.955-1.122,6.492.541.9.679,2.043,1.168,2.99.758,1.471,1.658,2.87,2.5,4.3.216.365.436.728.825,1.377h-7.542c-.032-.251-.092-.428-.051-.457,1.972-1.334,1.417-2.944.584-4.651-.565-1.159-.991-2.386-1.49-3.6-3.416,2.668-3.668,5.01-.822,8.6H365.4c-.016-.186-.106-.439-.035-.5,1.9-1.544,1.675-3.676,1.644-5.767-.024-1.583.03-3.167-.013-4.748-.059-2.131.584-4.434-2.016-6.325h7.62c-2.25,2.58-1.065,5.475-1.32,8.215Z" transform="translate(13.534 63.696)" fill="#fff"/>
    <path id="Path_667" data-name="Path 667" d="M342.06,957.466c-.113-3.29.6-6.109,3.807-7.878a4.852,4.852,0,0,0,1.809-2.537,8.641,8.641,0,0,1,5.194-5.649,10.314,10.314,0,0,0,6.308-6.412c2.491-6.715,5.091-13.39,7.68-20.067a6.837,6.837,0,0,1,1.006-1.4c.431.533,1.157,1.03,1.229,1.607a6.794,6.794,0,0,1-.279,3.135c-2.426,6.435-4.9,12.852-7.472,19.231a8.99,8.99,0,0,1-6.258,5.7,6.253,6.253,0,0,0-4.637,4.51,5.992,5.992,0,0,1-3.276,4.082c-1.542.717-2.047,2.134-2.086,3.785-.038,1.5.122,3.116-1.394,4.126a12.265,12.265,0,0,1-1.136.6,7.381,7.381,0,0,1-.474-1.315A9.366,9.366,0,0,1,342.06,957.466Z" transform="translate(0.08 41.535)" fill="#fff"/>
    <path id="Path_668" data-name="Path 668" d="M441.574,959.8a8.27,8.27,0,0,0-5.013-7.583c-3.443-1.682-7.044-.73-10.788-.714,2.269,1.3,1.983,3.284,1.935,5.2-.048,2.205-.1,4.41.016,6.616.079,1.824.079,3.506-1.84,4.49-.206.1-.27.46-.444.809a4.151,4.151,0,0,0,1.158.365c2.38.016,4.759.032,7.123-.064C438.338,968.765,441.907,965.069,441.574,959.8Zm-4.2,3.046c-.143,2.443-1.444,3.934-3.411,4.22-1.237.19-1.967-.127-1.92-1.555.032-1.793,0-3.6,0-5.41h.1c0-1.9.016-3.823-.016-5.743,0-.984.46-1.254,1.364-1.222,2.221.079,3.7,1.586,3.871,4.3A41.041,41.041,0,0,1,437.37,962.847Z" transform="translate(48.99 63.64)" fill="#fff"/>
    <path id="Path_669" data-name="Path 669" d="M356.638,953.769c-.952-1.872-2.76-2.443-4.68-2.523-2.713-.111-5.426-.063-8.138-.047a7.645,7.645,0,0,0-1.317.238c-.079.111-.159.238-.238.365,2.094.825,1.65,2.522,1.666,4.045.016,2.078.048,4.172-.032,6.266-.079,2.316.809,4.886-2,6.695h8.138c-3.236-2.062-1.935-5.061-2.094-7.948,1.111,0,2.015.064,2.9-.016,1.856-.143,3.776-.286,5.092-1.856A4.518,4.518,0,0,0,356.638,953.769Zm-7.916,5.029a1.22,1.22,0,0,1-.587-.857,14.248,14.248,0,0,1-.032-2.015v-.508c.016-2.57.1-2.681,1.9-2.554a3.182,3.182,0,0,1,2.983,3.236A3.322,3.322,0,0,1,348.722,958.8Z" transform="translate(0 63.613)" fill="#fff"/>
    <path id="Path_670" data-name="Path 670" d="M389.1,951.548a105.87,105.87,0,0,0-10.772-.254c-.063,0-.143.143-.46.508,1.951.714,1.7,2.316,1.555,3.712-.476,4.426,1.444,9.138-1.475,13.247h7.488c.159-.079.333-.174.492-.27-3.728-1.84-2.047-4.87-2.332-7.5,1.872-.19,3.569-.206,5.2-.539a4.657,4.657,0,0,0,3.887-4.505C392.7,953.515,391.72,951.865,389.1,951.548Zm-.7,4.839c-.254,1.634-1.317,2.38-3.443,2.4-1.031.19-1.444-.3-1.348-1.428.079-.777-.032-1.571-.016-2.364,0-2.142,1.11-2.855,3.094-1.935A2.865,2.865,0,0,1,388.4,956.386Z" transform="translate(21.094 63.677)" fill="#fff"/>
    <path id="Path_671" data-name="Path 671" d="M416.442,968.714a34.951,34.951,0,0,1-1.761-4.505c-.9-3.728-1.6-7.5-2.443-11.248-.175-.777-.016-1.983-1.475-1.761-1.349.222-3.014-.7-3.649,1.618-1.079,3.9-2.411,7.758-3.744,11.613a45.967,45.967,0,0,1-1.92,4.2h4.426c-1.872-1.92-1-3.839.079-5.124.571-.682,3.03-.793,3.728-.159,1.555,1.412,1.285,3.474-.1,5.362Zm-10.026-7.377c.571-1.729,1.063-3.3,1.571-4.87.159,0,.317,0,.476-.016.381,1.539.746,3.078,1.19,4.886Z" transform="translate(34.922 63.612)" fill="#fff"/>
  </g>
</svg>
